<?xml version="1.0" encoding="UTF-8" standalone="no"?>
<!-- Generator: Adobe Illustrator 15.0.0, SVG Export Plug-In . SVG Version: 6.00 Build 0)  -->

<svg
   xmlns:dc="http://purl.org/dc/elements/1.1/"
   xmlns:cc="http://creativecommons.org/ns#"
   xmlns:rdf="http://www.w3.org/1999/02/22-rdf-syntax-ns#"
   xmlns:svg="http://www.w3.org/2000/svg"
   xmlns="http://www.w3.org/2000/svg"
   xmlns:sodipodi="http://sodipodi.sourceforge.net/DTD/sodipodi-0.dtd"
   xmlns:inkscape="http://www.inkscape.org/namespaces/inkscape"
   version="1.1"
   id="Layer_1"
   x="0px"
   y="0px"
   width="550px"
   height="400px"
   viewBox="0 0 550 400"
   enable-background="new 0 0 550 400"
   xml:space="preserve"
   inkscape:version="0.48.1 r9760"
   sodipodi:docname="fish03.svg"><metadata
   id="metadata29"><rdf:RDF><cc:Work
       rdf:about=""><dc:format>image/svg+xml</dc:format><dc:type
         rdf:resource="http://purl.org/dc/dcmitype/StillImage" /></cc:Work></rdf:RDF></metadata><defs
   id="defs27" /><sodipodi:namedview
   pagecolor="#ffffff"
   bordercolor="#666666"
   borderopacity="1"
   objecttolerance="10"
   gridtolerance="10"
   guidetolerance="10"
   inkscape:pageopacity="0"
   inkscape:pageshadow="2"
   inkscape:window-width="1680"
   inkscape:window-height="966"
   id="namedview25"
   showgrid="false"
   inkscape:zoom="2"
   inkscape:cx="16.221374"
   inkscape:cy="410.05894"
   inkscape:window-x="0"
   inkscape:window-y="22"
   inkscape:window-maximized="0"
   inkscape:current-layer="Layer_1" />




<g
   id="g3"
   transform="matrix(-0.81310076,0.58212297,-0.58212297,-0.81310076,319.42393,26.53232)">
	<path
   style="fill:#a7b2bd;fill-rule:evenodd"
   inkscape:connector-curvature="0"
   clip-rule="evenodd"
   d="M 333.55,270.4 C 341.616,275.566 350.3,280.016 359.6,283.75 C 366.034,286.35 380.55,291.884 403.151,300.35 C 418.284,306.284 429.734,312.667 437.501,319.5 C 442.468,323.9 446.034,328.733 448.201,334 L 449.201,335.95 C 450.1,337.483 451.117,338.783 452.251,339.849 C 454.651,341.983 456.268,343.65 457.101,344.849 C 457.635,345.582 457.902,346.233 457.902,346.799 C 457.801,347.766 457.152,348.249 455.952,348.249 C 455.518,348.249 455.118,348.133 454.752,347.899 C 454.552,347.832 454.085,347.482 453.352,346.848 L 453.903,347.649 L 454.052,347.749 C 454.118,347.849 454.153,348.065 454.153,348.399 C 454.153,348.465 454.102,348.782 454.003,349.348 C 453.736,349.882 453.103,350.149 452.103,350.149 C 450.904,350.149 439.853,345.115 418.954,335.048 C 400.287,326.048 387.804,319.899 381.504,316.598 C 386.304,320.965 393.337,327.165 402.604,335.199 C 408.705,340.466 411.754,343.249 411.754,343.549 C 411.754,345.15 410.32,345.949 407.454,345.949 C 399.687,345.949 388.837,341.699 374.904,333.199 C 360.737,324.499 351.671,316.348 347.704,308.749 C 347.171,307.749 344.62,305.199 340.054,301.099 C 335.454,297.066 332.354,294.599 330.754,293.7 C 323.721,289.766 319.087,287.283 316.854,286.25 C 312.321,284.15 308.621,283.1 305.754,283.1 C 304.188,283.1 292.537,279.451 270.804,272.151 C 248.871,264.651 237.321,260.717 236.154,260.35 C 223.554,256.384 212.854,252.767 204.054,249.5 C 183.887,242.066 170.721,235.783 164.554,230.65 C 164.988,231.216 165.637,232.066 166.504,233.2 C 167.204,234.099 167.554,234.733 167.554,235.099 C 167.554,235.4 167.504,235.683 167.404,235.95 C 167.304,236.183 167.254,236.366 167.254,236.5 C 166.854,236.667 166.321,236.75 165.654,236.75 C 164.987,236.75 164.421,236.667 163.954,236.5 C 163.087,236.1 162.121,235.283 161.054,234.05 C 160.954,234.384 160.171,236.151 158.704,239.35 C 158.704,239.75 158.971,240.234 159.504,240.8 C 160.037,241.401 160.304,241.767 160.304,241.901 C 160.304,242.334 160.137,242.717 159.804,243.05 C 159.404,243.45 158.821,243.651 158.054,243.651 C 157.854,243.651 157.504,243.367 157.004,242.8 C 156.504,242.2 156.004,241.901 155.504,241.901 C 155.137,241.901 154.454,242.017 153.454,242.251 C 152.42,242.451 151.754,242.551 151.454,242.551 C 151.221,242.084 150.954,241.735 150.654,241.501 L 149.054,241.001 L 148.354,239.151 L 146.254,241.35 L 147.104,241.451 C 147.871,241.084 148.521,240.934 149.054,241.001 C 149.554,241.968 149.988,242.501 150.354,242.601 C 150.587,242.668 150.954,242.652 151.454,242.551 C 151.42,242.617 151.371,243.051 151.304,243.851 C 151.104,244.584 150.504,244.952 149.504,244.952 C 148.937,244.952 148.037,244.585 146.804,243.851 C 145.304,242.885 144.004,242.235 142.904,241.902 C 139.004,240.968 136.671,240.301 135.904,239.902 C 135.137,239.535 134.371,237.902 133.604,235.002 C 130.571,223.802 128.404,216.252 127.104,212.352 C 126.771,211.286 125.437,207.752 123.104,201.752 C 121.437,197.985 118.987,193.719 115.754,188.952 C 112.887,184.952 111.454,182.918 111.454,182.852 C 109.854,181.785 107.904,180.402 105.604,178.702 C 100.971,175.235 96.904,171.819 93.404,168.452 C 88.571,163.785 84.771,158.768 82.004,153.402 C 79.237,148.002 77.854,142.919 77.854,138.152 C 77.854,132.919 78.087,129.685 78.554,128.452 C 78.821,127.752 79.537,127.402 80.704,127.402 C 81.071,127.402 83.571,125.869 88.204,122.802 C 92.837,119.736 95.554,118.202 96.354,118.202 C 99.521,118.202 105.054,119.785 112.954,122.952 C 113.154,123.018 121.204,126.452 137.104,133.252 C 137.371,133.385 137.654,133.502 137.954,133.602 C 137.854,134.168 137.804,134.769 137.804,135.402 L 137.754,136.802 C 137.821,137.935 138.071,138.969 138.504,139.902 C 139.904,142.902 142.837,144.402 147.304,144.402 C 151.037,144.402 153.871,143.152 155.804,140.652 C 167.504,144.819 176.604,146.969 183.104,147.102 C 183.037,147.435 182.987,147.785 182.954,148.152 C 182.087,148.552 181.304,149.086 180.604,149.752 C 178.737,151.585 177.804,154.002 177.804,157.002 C 177.804,157.102 177.821,157.669 177.854,158.702 C 177.854,158.802 177.871,158.902 177.904,159.002 C 177.471,158.302 176.937,157.652 176.304,157.052 C 174.771,155.685 172.937,154.935 170.804,154.802 C 168.604,154.635 166.771,155.169 165.304,156.402 C 163.637,157.802 162.804,159.836 162.804,162.502 C 162.804,163.835 163.238,165.235 164.104,166.702 C 165.504,169.168 167.737,170.402 170.804,170.402 C 173.437,170.402 175.537,169.336 177.104,167.202 C 178.237,165.602 178.804,164.085 178.804,162.652 C 178.804,162.552 178.804,162.452 178.804,162.352 C 179.437,163.619 180.321,164.585 181.454,165.252 C 180.354,166.585 179.804,168.335 179.804,170.502 C 179.804,171.802 180.221,173.185 181.054,174.652 C 182.454,177.152 184.704,178.402 187.804,178.402 C 190.404,178.402 192.488,177.319 194.054,175.152 C 194.254,174.885 194.437,174.619 194.604,174.352 C 194.771,174.418 194.937,174.502 195.104,174.602 C 193.571,176.002 192.804,177.935 192.804,180.402 L 192.954,181.802 C 193.154,182.935 193.52,183.969 194.054,184.902 C 195.721,187.902 198.637,189.402 202.804,189.402 C 205.271,189.402 207.271,188.485 208.804,186.652 C 210.137,185.086 210.804,183.336 210.804,181.402 C 210.804,181.269 210.804,181.135 210.804,181.002 C 211.671,181.269 212.671,181.402 213.804,181.402 C 216.604,181.402 218.687,180.435 220.054,178.502 C 239.488,193.269 261.921,211.402 287.354,232.902 C 313.184,254.733 328.583,267.233 333.55,270.4 z M 102.3,150.2 C 102.3,150.333 102.35,150.467 102.45,150.6 C 102.516,150.7 102.617,150.75 102.75,150.75 C 102.883,150.75 103,150.7 103.1,150.6 C 103.166,150.467 103.2,150.333 103.2,150.2 C 103.2,150.067 103.166,149.933 103.1,149.8 C 103,149.7 102.883,149.65 102.75,149.65 C 102.617,149.65 102.517,149.7 102.45,149.8 C 102.35,149.933 102.3,150.067 102.3,150.2 z M 104.5,152.5 C 105.867,152.667 106.633,152.65 106.8,152.45 C 105.8,152.516 105.05,152.533 104.55,152.5 H 104.5 z M 140.7,232.75 C 140.766,233.05 140.833,233.5 140.9,234.1 C 140.967,234.701 141.017,235.284 141.05,235.85 H 141.95 L 140.7,232.75 z"
   id="path5" />
	<path
   style="fill:#999999;fill-opacity:0.99610003;fill-rule:evenodd"
   inkscape:connector-curvature="0"
   clip-rule="evenodd"
   d="M 204.25,173.1 C 204.517,172.8 204.783,172.483 205.05,172.15 C 205.383,171.717 205.667,171.283 205.9,170.85 C 205.834,171.35 205.8,171.867 205.8,172.4 L 205.85,173.75 C 205.35,173.483 204.817,173.267 204.25,173.1 z M 201.2,160.25 C 201.5,159.917 201.783,159.55 202.05,159.15 C 203.217,157.45 203.8,155.567 203.8,153.5 C 203.8,151.767 203.017,149.933 201.45,148 C 207.916,149.033 214.983,150.867 222.65,153.5 C 227.517,155.167 232.084,156.95 236.35,158.85 C 239.95,160.483 241.75,161.433 241.75,161.7 C 241.75,162.1 241.533,162.45 241.1,162.75 C 240.666,163.05 240.117,163.2 239.45,163.2 C 239.05,163.2 237.883,163 235.95,162.6 C 236.183,164 236.3,165.65 236.3,167.55 C 237.067,168.084 238.3,168.533 240,168.9 C 241.033,169.167 241.55,169.7 241.55,170.5 C 241.55,170.833 241.5,171.133 241.4,171.4 C 241.267,171.667 241.2,171.834 241.2,171.9 L 239.55,172.1 C 239.183,172.1 238.334,171.933 237,171.6 C 235.667,171.267 234.833,171.1 234.5,171.1 C 233.133,171.1 232.35,171.383 232.15,171.95 C 231.983,172.483 231.5,172.75 230.7,172.75 C 230.433,172.75 229.416,172.833 227.65,173 C 225.917,173.167 224.6,173.25 223.7,173.25 C 223.1,173.25 222.467,173.233 221.8,173.2 C 221.8,172.933 221.8,172.666 221.8,172.4 C 221.8,169.967 220.967,167.9 219.3,166.2 C 217.767,164.633 215.933,163.75 213.8,163.55 C 211.6,163.317 209.767,163.9 208.3,165.3 C 207.7,165.867 207.2,166.55 206.8,167.35 C 206.734,165.25 205.9,163.483 204.3,162.05 C 203.367,161.217 202.333,160.617 201.2,160.25 z"
   id="path7" />
</g><g
   id="g9"
   transform="matrix(-0.81310076,0.58212297,-0.58212297,-0.81310076,319.42393,26.53232)">
	<path
   style="fill:#ffffff;fill-opacity:0.99610003;fill-rule:evenodd"
   inkscape:connector-curvature="0"
   clip-rule="evenodd"
   d="M 114.65,110.6 C 114.517,110.6 114.417,110.666 114.35,110.8 C 114.25,110.933 114.2,111.084 114.2,111.25 C 114.2,111.416 114.25,111.567 114.35,111.7 C 114.416,111.833 114.517,111.9 114.65,111.9 C 114.783,111.9 114.9,111.834 115,111.7 C 115.067,111.567 115.1,111.416 115.1,111.25 C 115.1,111.084 115.067,110.933 115,110.8 C 114.9,110.667 114.783,110.6 114.65,110.6 z M 219.2,132.55 L 215.85,131.5 C 217.05,132.4 218.167,132.75 219.2,132.55 z M 342.1,281.8 C 335.067,277.134 330.434,274.184 328.201,272.95 C 323.701,270.483 320.017,269.25 317.151,269.25 C 315.584,269.25 303.967,264.9 282.3,256.2 C 260.4,247.3 248.867,242.634 247.7,242.2 C 235.133,237.467 224.467,233.167 215.7,229.3 C 195.6,220.434 182.467,212.967 176.3,206.901 C 176.734,207.567 177.383,208.567 178.25,209.901 C 178.95,210.967 179.3,211.717 179.3,212.151 C 179.3,212.517 179.25,212.85 179.15,213.151 C 179.05,213.451 179,213.668 179,213.8 C 178.6,214.033 178.067,214.151 177.4,214.151 C 176.733,214.151 176.167,214.034 175.7,213.8 C 174.833,213.333 173.867,212.366 172.8,210.901 C 172.7,211.3 171.917,213.401 170.45,217.201 C 170.45,217.701 170.717,218.284 171.25,218.951 C 171.783,219.651 172.05,220.084 172.05,220.251 C 172.05,220.784 171.883,221.234 171.55,221.601 C 171.15,222.068 170.567,222.301 169.8,222.301 C 169.6,222.301 169.25,221.968 168.75,221.301 C 168.25,220.601 167.767,220.251 167.3,220.251 C 166.933,220.251 166.25,220.385 165.25,220.651 C 164.217,220.918 163.55,221.05 163.25,221.05 C 163.017,220.484 162.75,220.067 162.45,219.8 L 160.85,219.151 L 160.15,217.001 L 158.05,219.601 L 158.9,219.702 C 159.667,219.268 160.317,219.085 160.85,219.152 C 161.35,220.318 161.783,220.968 162.15,221.101 C 162.383,221.168 162.75,221.152 163.25,221.051 C 163.217,221.117 163.167,221.617 163.1,222.551 C 162.9,223.451 162.3,223.902 161.3,223.902 C 160.734,223.902 159.834,223.452 158.6,222.551 C 157.1,221.418 155.8,220.652 154.7,220.251 C 150.8,219.151 148.483,218.367 147.75,217.901 C 146.983,217.434 146.217,215.484 145.45,212.05 C 142.416,198.75 140.25,189.767 138.95,185.1 C 138.617,183.867 137.283,179.666 134.95,172.5 C 133.283,168.033 130.85,162.967 127.65,157.3 C 124.783,152.533 123.35,150.117 123.35,150.05 C 121.75,148.783 119.8,147.133 117.5,145.1 C 112.867,141 108.817,136.95 105.35,132.95 C 100.517,127.383 96.717,121.416 93.95,115.05 C 91.183,108.617 89.8,102.584 89.8,96.95 C 89.8,90.717 90.033,86.867 90.5,85.4 C 90.767,84.567 91.483,84.15 92.65,84.15 C 93.017,84.15 95.517,82.334 100.15,78.7 C 104.783,75.033 107.5,73.2 108.3,73.2 C 111.433,73.2 116.95,75.083 124.85,78.85 C 125.05,78.95 133.067,83.033 148.9,91.1 C 171.767,102.8 187.85,108.267 197.15,107.5 C 207.317,106.667 219.683,109.217 234.25,115.15 C 239.117,117.15 243.667,119.283 247.9,121.55 C 251.5,123.484 253.3,124.6 253.3,124.9 C 253.3,125.4 253.084,125.817 252.65,126.15 C 252.217,126.517 251.667,126.7 251,126.7 C 250.6,126.7 249.433,126.467 247.5,126 C 247.733,127.667 247.85,129.633 247.85,131.9 C 248.617,132.533 249.85,133.067 251.55,133.5 C 252.584,133.8 253.1,134.433 253.1,135.4 C 253.1,135.8 253.05,136.15 252.95,136.45 C 252.817,136.783 252.75,136.983 252.75,137.05 L 251.1,137.3 C 250.733,137.3 249.883,137.1 248.55,136.7 C 247.25,136.3 246.433,136.1 246.1,136.1 C 244.733,136.1 243.95,136.433 243.75,137.1 C 243.583,137.733 243.1,138.05 242.3,138.05 C 242.033,138.05 241.017,138.15 239.25,138.35 C 237.517,138.55 236.2,138.65 235.3,138.65 C 233.1,138.65 230.467,138.367 227.4,137.8 C 224.767,137.3 223.084,136.883 222.35,136.55 C 243.783,155.45 269.267,179.783 298.8,209.55 C 324.567,235.484 339.934,250.35 344.901,254.151 C 352.934,260.284 361.584,265.567 370.85,270.001 C 377.284,273.067 391.767,279.651 414.3,289.751 C 429.401,296.784 440.817,304.367 448.55,312.501 C 453.517,317.734 457.083,323.484 459.25,329.751 L 460.25,332.051 C 461.15,333.885 462.167,335.418 463.3,336.652 C 465.667,339.218 467.267,341.202 468.1,342.601 C 468.634,343.501 468.901,344.285 468.901,344.952 C 468.8,346.085 468.151,346.652 466.951,346.652 C 466.517,346.652 466.117,346.518 465.751,346.252 C 465.551,346.152 465.084,345.735 464.351,345.002 L 464.902,345.952 L 465.051,346.052 C 465.117,346.186 465.152,346.452 465.152,346.852 C 465.152,346.919 465.101,347.286 465.002,347.953 C 464.735,348.586 464.118,348.903 463.152,348.903 C 461.952,348.903 450.919,342.92 430.051,330.953 C 411.451,320.286 399.001,312.986 392.701,309.053 C 397.501,314.253 404.517,321.619 413.751,331.154 C 419.851,337.421 422.901,340.737 422.901,341.103 C 422.901,343.003 421.467,343.954 418.6,343.954 C 410.833,343.954 400,338.888 386.1,328.754 C 372,318.421 362.967,308.737 359,299.704 C 358.467,298.504 355.917,295.471 351.35,290.603 C 346.783,285.8 343.7,282.866 342.1,281.8 z M 118.7,113.95 C 117.7,114.016 116.95,114.033 116.45,114 H 116.4 C 117.767,114.2 118.533,114.183 118.7,113.95 z M 152.7,211 C 152.766,211.7 152.817,212.384 152.85,213.05 H 153.75 L 152.5,209.401 C 152.567,209.733 152.633,210.267 152.7,211 z"
   id="path11" />
</g><g
   id="g13"
   transform="matrix(-0.81310076,0.58212297,-0.58212297,-0.81310076,319.42393,26.53232)">
	<path
   style="fill:#999999;fill-opacity:0.99610003;fill-rule:evenodd"
   d="M 393.8,290.9 C 404.734,294.866 415.283,300.816 425.45,308.75 C 431.25,313.283 439.116,320.083 449.05,329.15 L 448.8,329.65 C 439.267,321.283 431.567,314.833 425.7,310.299 C 415.2,302.233 404.4,296.016 393.3,291.65 C 393.3,291.45 393.384,291.299 393.55,291.2 C 393.717,291.066 393.8,290.967 393.8,290.9 z"
   id="path3111" /><path
   style="fill:#999999;fill-opacity:0.99610003;fill-rule:evenodd"
   d="M 394.3,300.15 C 398.866,301.549 405.6,304.616 414.5,309.349 C 417.033,310.716 419.4,312.033 421.6,313.299 C 420.967,312.799 420.367,312.349 419.8,311.949 C 409.5,304.482 399.333,298.549 389.3,294.149 C 398.533,297.449 408.267,302.649 418.5,309.749 C 424.333,313.782 432.517,319.832 443.05,327.899 V 328.649 C 439.85,326.682 436.017,324.048 431.55,320.749 C 431.317,320.582 431.083,320.399 430.85,320.199 C 425.151,317.098 420.417,314.515 416.651,312.449 C 407.984,307.716 400.534,303.699 394.3,300.399 V 300.15 z"
   id="path3109" /><path
   style="fill:#999999;fill-opacity:0.99610003;fill-rule:evenodd"
   d="M 378.05,305.15 C 381.651,309.65 386.95,314.983 393.95,321.15 C 402.183,328.383 407.967,333.799 411.3,337.4 C 405.234,334.2 399.134,329.167 393,322.299 C 384.267,312.566 379.033,306.933 377.3,305.4 L 378.05,305.15 z"
   id="path3107" /><path
   style="fill:#999999;fill-opacity:0.99610003;fill-rule:evenodd"
   d="M 384.05,313.75 C 388.317,318.217 391.317,321.267 393.05,322.9 V 323.65 C 389.116,319.783 386.167,316.866 384.2,314.9 C 380.7,311.366 378.4,308.783 377.3,307.15 C 378.233,307.816 380.483,310.017 384.05,313.75 z"
   id="path3105" /><path
   style="fill:#999999;fill-opacity:0.99610003;fill-rule:evenodd"
   d="M 204.9,134.4 C 205.867,135.233 206.834,135.65 207.8,135.65 C 209,135.65 209.683,135.584 209.85,135.45 C 210.017,135.317 209.833,135.05 209.3,134.65 V 133.15 H 210.8 C 210.8,133.417 210.883,133.917 211.05,134.65 C 211.217,135.417 211.3,135.917 211.3,136.15 V 136.9 C 208.4,135.967 206.817,135.783 206.55,136.35 C 206.084,137.217 205.334,137.65 204.3,137.65 C 202.334,137.65 200.584,137.15 199.05,136.15 C 197.883,135.383 197.3,134.8 197.3,134.4 C 197.3,133.367 197.383,132.967 197.55,133.2 C 197.65,133.333 197.734,133.567 197.8,133.9 C 198.7,134.167 199.7,134.567 200.8,135.1 C 201.9,135.633 202.734,136.15 203.3,136.65 L 205.3,136.4 C 205.267,136.267 204.9,135.834 204.2,135.1 C 203.6,134.433 203.3,133.867 203.3,133.4 V 133.15 C 203.4,133.15 203.933,133.567 204.9,134.4 z"
   id="path3103" /><path
   style="fill:#999999;fill-opacity:0.99610003;fill-rule:evenodd"
   d="M 210.05,138.15 C 210.517,138.483 212.484,140 215.95,142.7 C 218.483,144.633 220.266,145.95 221.3,146.65 L 222.3,146.4 C 222.133,145.9 221.8,145.4 221.3,144.9 C 221.3,143.9 221.55,143.317 222.05,143.15 C 222.883,143.75 223.334,144.067 223.4,144.1 C 223.967,144.367 224.85,144.383 226.05,144.15 L 226.3,145.25 C 224.1,146.05 223.05,146.75 223.15,147.35 C 223.617,147.717 223.667,147.9 223.3,147.9 C 220.5,147.9 217.55,146.6 214.45,144 C 212.317,142.233 210.6,140.367 209.3,138.4 L 210.05,138.15 z"
   id="path3101" /><path
   style="fill:#999999;fill-opacity:0.99610003;fill-rule:evenodd"
   d="M 193.3,141.9 C 192.967,141.767 192.633,141.65 192.3,141.55 C 192.3,140.617 192.467,140.067 192.8,139.9 C 194.2,139.933 195.667,141.067 197.2,143.3 C 197.5,143.767 197.783,144.2 198.05,144.6 C 197.683,144.333 197.317,144.067 196.95,143.8 C 196.483,143.1 195.3,142.484 193.4,141.95 C 193.367,141.917 193.333,141.9 193.3,141.9 z"
   id="path3099" /><path
   style="fill:#999999;fill-opacity:0.99610003;fill-rule:evenodd"
   d="M 170.8,170.9 C 167.867,170.7 165.467,169.933 163.6,168.6 C 162.067,167.233 160.967,166.416 160.3,166.15 V 169.15 C 160.1,169.783 159.967,170.133 159.9,170.2 C 159.6,170.5 158.9,170.65 157.8,170.65 C 155.8,170.65 154.117,169.633 152.75,167.6 C 151.783,166.133 151.3,165.017 151.3,164.25 C 151.3,163.25 151.334,162.717 151.4,162.65 C 151.6,162.75 151.817,162.667 152.05,162.4 L 153.05,162.15 C 153.05,163.45 153.6,164.783 154.7,166.15 C 156.233,168.05 157.1,169.217 157.3,169.65 C 158.734,169.017 159.45,168.05 159.45,166.75 C 159.416,165.85 159.033,164.733 158.3,163.4 C 159.334,163.733 161.35,164.983 164.35,167.15 C 165.75,169.317 167.9,170.4 170.8,170.4 C 170.834,170.4 170.883,170.4 170.95,170.4 C 170.883,170.6 170.833,170.767 170.8,170.9 z"
   id="path3097" /><path
   style="fill:#999999;fill-opacity:0.99610003;fill-rule:evenodd"
   d="M 177.85,158.5 C 177.85,158.567 177.85,158.633 177.85,158.7 C 177.85,158.8 177.867,158.9 177.9,159 C 177.767,158.8 177.633,158.6 177.5,158.4 C 177.633,158.433 177.75,158.467 177.85,158.5 z"
   id="path3095" /><path
   style="fill:#999999;fill-opacity:0.99610003;fill-rule:evenodd"
   d="M 179.05,174.15 C 179.317,174.417 179.633,174.933 180,175.7 C 180.5,176.333 181.267,176.65 182.3,176.65 C 182.4,176.65 182.517,176.65 182.65,176.65 C 183.15,177.117 183.733,177.483 184.4,177.75 C 185.167,178.083 186.033,178.3 187,178.4 C 187.4,178.6 187.85,178.834 188.35,179.1 C 190.617,180.333 192.1,181.183 192.8,181.65 L 192.95,181.75 V 181.8 C 192.983,182.067 193.05,182.334 193.15,182.6 C 190.35,182.166 188.617,181.6 187.95,180.9 C 186.516,179.467 185.3,178.55 184.3,178.15 C 184.3,178.017 184.334,177.883 184.4,177.75 C 183,178.583 182.3,179.967 182.3,181.9 C 179.2,181.7 177.117,181.25 176.05,180.55 C 175.217,179.617 174.467,178.9 173.8,178.4 L 175.35,181.45 C 175.983,182.75 176.3,183.9 176.3,184.9 C 176.3,186 176.283,186.584 176.25,186.65 C 176.217,186.75 176.067,186.834 175.8,186.9 C 171.433,186.5 168.25,185.15 166.25,182.85 C 164.55,180.15 162.9,178.25 161.3,177.15 C 162.633,177.25 163.667,177.667 164.4,178.4 C 164.5,178.5 165.084,179.317 166.15,180.85 C 167.817,183.283 170.867,184.8 175.3,185.4 C 174.933,184.267 174.183,182.617 173.05,180.45 C 171.883,178.283 170.967,176.766 170.3,175.9 V 175.15 C 171.5,175.817 173.017,176.75 174.85,177.95 C 176.983,179.35 178.133,180.25 178.3,180.65 L 181.3,180.4 C 181.3,180 180.8,179.084 179.8,177.65 C 178.8,176.183 178.3,175.217 178.3,174.75 C 178.3,173.717 178.433,173.3 178.7,173.5 C 178.8,173.633 178.917,173.85 179.05,174.15 z"
   id="path3093" /><path
   style="fill:#999999;fill-opacity:0.99610003;fill-rule:evenodd"
   d="M 180.35,186.7 C 181.25,187.233 182.4,187.967 183.8,188.9 L 184.05,189.65 C 180.05,187.717 177.8,186.717 177.3,186.65 V 185.15 C 177.7,185.15 178.717,185.667 180.35,186.7 z"
   id="path3091" /><path
   style="fill:#999999;fill-opacity:0.99610003;fill-rule:evenodd"
   d="M 195.1,174.6 C 195.067,174.633 195.033,174.666 195,174.7 C 194.833,174.7 194.633,174.7 194.4,174.7 C 194.467,174.567 194.533,174.45 194.6,174.35 C 194.767,174.417 194.933,174.5 195.1,174.6 z"
   id="path3089" /><path
   style="fill:#999999;fill-opacity:0.99610003;fill-rule:evenodd"
   d="M 193.8,176.25 C 193.533,176.717 193.317,177.2 193.15,177.7 C 192.783,177.2 192.584,176.933 192.55,176.9 V 176.8 C 192.75,176.6 192.967,176.4 193.2,176.2 C 193.4,176.2 193.6,176.217 193.8,176.25 z"
   id="path3087" /><path
   style="fill:#999999;fill-opacity:0.99610003;fill-rule:evenodd"
   d="M 186.6,194.65 C 186.567,194.617 186.467,194.117 186.3,193.15 C 187,193.417 187.45,194.017 187.65,194.95 C 188.183,195.516 189.9,195.166 192.8,193.9 L 193.95,194.1 C 194.683,194.333 195.05,194.6 195.05,194.9 C 193.95,195.4 192.567,195.65 190.9,195.65 C 188.567,195.65 187.133,195.317 186.6,194.65 z"
   id="path3085" /><path
   style="fill:#999999;fill-opacity:0.99610003;fill-rule:evenodd"
   d="M 232.3,156.4 L 233.05,156.15 C 233.417,156.617 234.167,157.117 235.3,157.65 C 236.7,158.317 238.283,158.817 240.05,159.15 L 240.3,159.9 L 240.75,160.4 C 240.817,160.733 240.333,160.9 239.3,160.9 C 236.133,160.9 233.8,159.4 232.3,156.4 z"
   id="path3083" /><path
   style="fill:#999999;fill-opacity:0.99610003;fill-rule:evenodd"
   d="M 204.3,197.65 C 204.3,197.883 204.183,198.267 203.95,198.8 C 203.916,198.9 203.867,199.017 203.8,199.15 C 203.467,199.917 203.3,200.417 203.3,200.65 H 195.3 C 195.3,200.316 194.967,199.983 194.3,199.65 C 194.467,199.15 194.8,198.65 195.3,198.15 C 195.4,198.15 195.35,198.4 195.15,198.9 C 194.95,199.4 195.334,199.65 196.3,199.65 C 201.133,199.65 203.683,199.367 203.95,198.8 C 203.483,197.834 203.516,196.95 204.05,196.15 L 204.3,197.65 z"
   id="path3081" /><path
   style="fill:#999999;fill-opacity:0.99610003;fill-rule:evenodd"
   d="M 258.3,176.65 V 176.9 C 256.967,176.8 255.683,176.517 254.45,176.05 C 253.683,175.783 252.633,175.317 251.3,174.65 C 251.3,174.45 251.383,174.3 251.55,174.2 C 251.717,174.067 251.8,173.967 251.8,173.9 C 252.5,174.067 253.467,174.467 254.7,175.1 C 256.133,175.8 257.333,176.317 258.3,176.65 z"
   id="path3079" /><path
   style="fill:#999999;fill-opacity:0.99610003;fill-rule:evenodd"
   d="M 245.3,197.15 C 245.967,197.417 248.217,199 252.05,201.9 L 252.3,202.65 L 245.55,203.4 C 246.85,204.033 247.6,204.683 247.8,205.349 C 247.933,205.816 248.1,206.666 248.3,207.9 V 208.65 C 247.3,209.483 245.967,209.9 244.3,209.9 C 242.567,209.9 241.4,209.417 240.8,208.45 V 208.4 C 241.267,208.566 241.767,208.65 242.3,208.65 C 243.167,208.65 243.85,208.5 244.35,208.2 C 245.017,207.833 245.833,207.566 246.8,207.4 C 246.467,206.366 246.234,205.75 246.1,205.549 C 245.8,205.016 245.2,204.466 244.3,203.9 C 243.933,203.167 243.834,202.599 244,202.2 C 244.267,201.5 246.2,201.233 249.8,201.4 C 249.633,201 248.933,200.299 247.7,199.299 C 246.133,198.066 245.333,197.432 245.3,197.399 V 197.15 z"
   id="path3077" /><path
   style="fill:#999999;fill-opacity:0.99610003;fill-rule:evenodd"
   d="M 130.7,141 C 133.4,142.5 136.6,143.3 140.3,143.4 C 139,142.633 137.967,142.017 137.2,141.55 C 135.766,140.683 134.8,139.8 134.3,138.9 V 138.15 C 135.133,138.117 136.467,138.75 138.3,140.05 C 138.433,140.15 138.584,140.25 138.75,140.35 C 139.65,142.05 141.133,143.217 143.2,143.85 C 140.7,144.383 139.183,144.65 138.65,144.65 C 136.483,144.65 133.7,143.7 130.3,141.8 C 127.433,140.2 125.767,139.067 125.3,138.4 C 125.933,138.467 127.733,139.333 130.7,141 z"
   id="path3075" /><path
   style="fill:#999999;fill-opacity:0.99610003;fill-rule:evenodd"
   d="M 297.3,234.4 C 296.366,232.833 295.583,231.716 294.95,231.049 C 293.849,229.916 291.967,229.115 289.3,228.65 C 289.3,228.45 289.384,228.299 289.55,228.2 C 289.717,228.066 289.8,227.967 289.8,227.9 C 293.634,228.667 296.151,229.7 297.35,231 C 297.984,231.7 298.3,232.833 298.3,234.4 C 298.3,235.966 295.717,237.216 290.55,238.15 C 289.55,238.15 289.2,238.466 289.5,239.099 C 289.667,239.466 289.934,239.983 290.3,240.65 C 288.967,241.15 288.134,241.566 287.8,241.9 C 286.2,241.799 285.017,241.533 284.25,241.099 C 283.616,240.766 283.3,240.366 283.3,239.9 C 283.634,239.9 284,239.966 284.401,240.099 C 284.901,240.233 285.201,240.416 285.3,240.65 C 285.967,240.583 286.717,240.616 287.55,240.75 C 288.05,240.717 288.3,240.184 288.3,239.15 C 288.3,238.15 288.1,237.65 287.7,237.65 H 286.3 C 286.3,237.383 286.567,237.183 287.1,237.049 C 287.734,236.916 289.05,236.782 291.05,236.65 C 290.151,236.25 289.384,235.633 288.75,234.799 C 288.15,233.966 287.333,233.332 286.3,232.9 V 232.15 C 286.901,232.417 287.984,233.116 289.55,234.25 C 290.583,235.017 291.75,235.4 293.05,235.4 C 293.884,235.4 294.467,235.299 294.8,235.099 C 295.267,234.8 296.1,234.566 297.3,234.4 z"
   id="path3073" /><path
   style="fill:#999999;fill-opacity:0.99610003;fill-rule:evenodd"
   d="M 292.3,242.15 C 292.533,242.15 293.616,242.583 295.55,243.45 C 297.616,244.349 299.033,245.083 299.8,245.65 L 301.05,246.15 C 301.884,246.25 302.3,245.783 302.3,244.75 C 302.3,244.083 301.616,243.3 300.25,242.4 C 298.116,241.033 296.884,240.2 296.55,239.9 L 296.3,239.15 C 296.833,239.15 297.401,239.4 298,239.9 C 298.634,240.4 299.4,240.65 300.3,240.65 C 301.967,240.65 303.634,240.566 305.3,240.4 C 303.366,238.7 302.317,237.799 302.151,237.7 C 301.418,237.167 300.134,236.483 298.3,235.65 C 298.3,235.45 298.384,235.299 298.55,235.2 C 298.717,235.066 298.8,234.967 298.8,234.9 C 300.667,235.333 302.05,235.966 302.95,236.799 C 304.717,238.4 305.833,239.349 306.3,239.65 C 306.134,240.083 306.317,240.667 306.85,241.4 C 306.817,241.966 305.3,242.299 302.3,242.4 C 302.967,243.066 303.3,244.316 303.3,246.15 V 246.9 C 301.033,246.933 298.8,246.383 296.6,245.25 C 294.567,243.983 293.217,243.2 292.55,242.9 L 292.3,242.15 z"
   id="path3071" /><path
   style="fill:#999999;fill-opacity:0.99610003;fill-rule:evenodd"
   d="M 305.3,245.65 C 305.3,244.15 305.55,243.316 306.05,243.15 C 307.217,244.25 308.651,245.2 310.35,246 C 312.117,246.833 312.434,246.8 311.3,245.9 C 309.967,243.9 309.3,242.65 309.3,242.15 H 310.05 C 311.317,243.65 312.067,245.15 312.3,246.65 V 247.9 C 311.2,247.766 309.967,247.483 308.6,247.049 C 307.3,246.616 306.2,246.15 305.3,245.65 z"
   id="path3069" /><path
   style="fill:#999999;fill-opacity:0.99610003;fill-rule:evenodd"
   d="M 250.05,208.15 C 250.183,208.549 250.25,208.833 250.25,209 C 250.283,209.233 250.3,209.95 250.3,211.15 C 250.3,212.016 249.95,213.516 249.25,215.65 C 248.45,218.049 247.967,219.799 247.8,220.9 C 245.7,220.799 243.85,220.533 242.25,220.099 C 240.883,219.733 239.983,219.332 239.55,218.9 L 239.3,218.15 C 239.667,218.15 240.417,218.333 241.55,218.7 C 242.683,219.099 243.433,219.417 243.8,219.65 C 244.967,218.917 245.984,218.266 246.85,217.7 C 247.15,217.5 247.3,217.316 247.3,217.15 C 247.3,215.917 247.183,215.116 246.95,214.75 C 246.75,214.417 246.2,214.05 245.3,213.65 C 244.6,213.45 244.75,213.233 245.75,213 C 246.717,212.767 247.9,212.65 249.3,212.65 V 208.15 H 250.05 z"
   id="path3067" /><path
   style="fill:#999999;fill-opacity:0.99610003;fill-rule:evenodd"
   d="M 253.3,225.65 C 254.7,224.45 255.5,223.783 255.7,223.65 C 256.8,222.849 257.916,222.349 259.05,222.15 C 257.883,223.316 256.967,224.566 256.3,225.9 L 253.3,225.65 z"
   id="path3065" /><path
   style="fill:#999999;fill-opacity:0.99610003;fill-rule:evenodd"
   d="M 280.95,235.1 C 282.417,235.267 283.2,235.451 283.3,235.651 C 282.967,235.817 281.3,235.817 278.3,235.651 C 278.3,235.451 278.384,235.3 278.55,235.201 C 278.717,235.067 278.8,234.968 278.8,234.901 L 280.95,235.1 z"
   id="path3063" /><path
   style="fill:#999999;fill-opacity:0.99610003;fill-rule:evenodd"
   d="M 273.05,229.15 C 272.917,229.516 272.417,230 271.55,230.599 C 270.683,231.166 269.933,231.516 269.3,231.65 C 268.8,231.15 268.467,230.65 268.3,230.15 C 269.033,230.15 269.917,229.983 270.95,229.65 C 271.983,229.316 272.683,229.15 273.05,229.15 z"
   id="path3061" /><path
   style="fill:#999999;fill-opacity:0.99610003;fill-rule:evenodd"
   d="M 223.3,208.4 C 223.967,209.4 224.3,210.816 224.3,212.65 V 212.9 L 218.3,213.4 C 218.567,213.667 218.834,213.917 219.1,214.15 C 219.233,214.45 219.3,215.15 219.3,216.25 C 219.3,217.316 219.283,217.866 219.25,217.9 C 219.217,217.966 219.067,217.966 218.8,217.9 C 216.234,217.799 213.117,217.2 209.45,216.099 C 206.583,215.233 204.617,214.499 203.55,213.9 L 203.3,213.15 C 204.1,213.15 205.683,213.733 208.05,214.9 C 210.417,216.066 212.167,216.65 213.3,216.65 C 214.967,216.65 216.633,216.566 218.3,216.4 C 218.234,215.5 217.367,214.299 215.7,212.799 C 214.133,211.4 212.666,210.433 211.3,209.9 V 209.15 C 211.8,209.316 212.85,209.799 214.45,210.599 C 216.016,211.299 217.3,211.65 218.3,211.65 C 219.967,211.65 221.633,211.566 223.3,211.4 C 222.667,210.2 222.183,209.349 221.85,208.849 C 221.35,207.983 220.166,207.249 218.3,206.65 V 206.15 C 218.4,206.083 219.234,206.133 220.8,206.299 C 222.767,206.466 224.6,206.499 226.3,206.4 L 224.4,203.099 C 223.7,201.999 223,201.099 222.3,200.4 V 200.15 C 223.9,200.516 225.183,201.383 226.15,202.75 C 226.917,203.85 227.3,204.85 227.3,205.75 C 227.3,206.884 227.1,207.55 226.7,207.75 C 225.7,207.95 224.567,208.167 223.3,208.4 z"
   id="path3059" /><path
   style="fill:#999999;fill-opacity:0.99610003;fill-rule:evenodd"
   d="M 226.3,217.15 C 226.567,217.016 227.1,217 227.9,217.099 C 228.7,217.233 229.167,217.416 229.3,217.65 C 231.433,217.116 232.417,216.133 232.25,214.7 C 232.083,213.3 232.683,212.45 234.05,212.15 C 233.783,212.95 233.55,214.167 233.35,215.799 C 233.117,217.433 232.933,218.466 232.8,218.9 C 229.8,218.733 228.3,218.316 228.3,217.65 C 226.967,217.65 226.3,217.483 226.3,217.15 z"
   id="path3057" /><path
   style="fill:#999999;fill-opacity:0.99610003;fill-rule:evenodd"
   d="M 233.3,224.9 C 233.4,224.9 234.6,224.783 236.9,224.549 C 239.2,224.282 240.584,224.15 241.05,224.15 C 240.917,224.516 239.6,224.833 237.1,225.099 C 234.567,225.333 233.3,225.267 233.3,224.9 z"
   id="path15" />
</g><g
   id="g17"
   transform="matrix(-0.81310076,0.58212297,-0.58212297,-0.81310076,319.42393,26.53232)">
	<path
   style="fill:#666666;fill-opacity:0.25100002;fill-rule:evenodd"
   inkscape:connector-curvature="0"
   clip-rule="evenodd"
   d="M 152.7,211 C 152.766,211.7 152.817,212.384 152.85,213.05 H 153.75 L 152.5,209.401 C 152.567,209.733 152.633,210.267 152.7,211 z M 215.85,131.5 C 217.05,132.4 218.166,132.75 219.2,132.55 L 215.85,131.5 z M 370.85,270 C 375.284,272.134 383.567,275.934 395.701,281.4 C 379.034,275.966 364.418,269.299 351.85,261.4 C 342.484,255.533 333.017,248.299 323.451,239.7 C 316.051,233.066 306.834,223.967 295.801,212.4 C 282.902,198.833 261.168,178.766 230.601,152.2 C 200.101,125.666 183.501,112.4 180.801,112.4 C 180.068,112.4 179.051,113.05 177.751,114.35 C 176.551,115.683 175.901,116.367 175.801,116.4 C 166.634,108.633 153.534,100.383 136.501,91.65 C 123.234,85.283 112.351,80.017 103.851,75.85 C 106.251,74.083 107.734,73.2 108.301,73.2 C 111.434,73.2 116.951,75.083 124.851,78.85 C 125.051,78.95 133.068,83.033 148.901,91.1 C 160.001,96.767 169.501,100.983 177.401,103.75 C 185.301,111.083 198.101,118.367 215.801,125.6 C 229.134,131.067 241.268,134.916 252.201,137.15 L 251.101,137.3 C 250.734,137.3 249.884,137.1 248.551,136.7 C 247.251,136.3 246.434,136.1 246.101,136.1 C 244.734,136.1 243.951,136.433 243.751,137.1 C 243.584,137.733 243.101,138.05 242.301,138.05 C 242.034,138.05 241.018,138.15 239.251,138.35 C 237.518,138.55 236.201,138.65 235.301,138.65 C 233.101,138.65 230.468,138.367 227.401,137.8 C 224.768,137.3 223.085,136.883 222.351,136.55 C 243.784,155.45 269.268,179.783 298.801,209.55 C 324.568,235.484 339.935,250.35 344.902,254.151 C 352.934,260.283 361.583,265.566 370.85,270 z M 342.1,281.8 C 335.067,277.134 330.434,274.184 328.201,272.95 C 323.701,270.483 320.017,269.25 317.151,269.25 C 315.584,269.25 303.967,264.9 282.3,256.2 C 260.4,247.3 239.984,238.183 221.05,228.849 C 202.084,219.483 189.133,213.716 182.2,211.549 C 180.733,211.082 179.5,210.666 178.5,210.299 C 179.033,211.166 179.3,211.782 179.3,212.15 C 179.3,212.516 179.25,212.849 179.15,213.15 C 179.05,213.45 179,213.667 179,213.799 C 178.867,213.865 178.733,213.933 178.6,213.999 C 178.2,212.599 177.683,211.149 177.05,209.649 C 174.717,208.548 174.317,207.682 175.85,207.048 C 173.416,202.114 169.883,196.681 165.25,190.748 C 160.65,184.881 154.167,177.765 145.8,169.398 C 145.967,169.765 146.834,173.598 148.4,180.898 C 150.233,189.498 151.967,196.781 153.6,202.748 C 155.333,209.048 157.05,214.382 158.75,218.748 L 158.05,219.598 L 158.9,219.699 C 158.967,219.666 159.033,219.633 159.1,219.598 C 159.733,221.165 160.367,222.598 161,223.899 C 160.433,223.765 159.633,223.315 158.6,222.548 C 157.1,221.415 155.8,220.649 154.7,220.248 C 150.8,219.148 148.483,218.364 147.75,217.898 C 146.983,217.431 146.217,215.481 145.45,212.047 C 142.416,198.747 140.25,189.764 138.95,185.097 C 138.617,183.864 137.283,179.663 134.95,172.497 C 133.283,168.03 130.85,162.964 127.65,157.297 C 124.783,152.53 123.35,150.114 123.35,150.047 C 121.75,148.78 119.8,147.13 117.5,145.097 C 112.867,140.997 108.817,136.947 105.35,132.947 C 100.517,127.38 96.717,121.413 93.95,115.047 C 91.183,108.614 89.8,102.581 89.8,96.947 C 89.8,95.147 89.817,93.564 89.85,92.197 C 93.217,104.297 100.3,115.297 111.1,125.197 C 117.467,131.03 124.467,135.714 132.1,139.247 C 134.967,140.58 137.817,141.697 140.65,142.597 C 142.25,143.797 144.467,144.397 147.3,144.397 C 147.4,144.397 147.5,144.397 147.6,144.397 C 150,144.897 152.4,145.23 154.8,145.397 C 155.2,146.597 155.334,148.081 155.2,149.847 C 155.1,150.814 154.967,152.163 154.8,153.897 C 154.8,173.73 177.067,194.297 221.6,215.597 C 236.8,222.864 253.633,229.731 272.1,236.198 C 285.767,240.998 296.667,244.398 304.8,246.398 C 318.934,249.864 331.684,256.464 343.05,266.198 C 354.95,276.364 363.866,288.764 369.8,303.398 C 374.934,316.097 386.317,328.248 403.95,339.847 C 398.717,337.314 392.766,333.614 386.099,328.747 C 371.999,318.414 362.966,308.73 358.999,299.697 C 358.466,298.497 355.916,295.464 351.349,290.596 C 346.783,285.8 343.7,282.866 342.1,281.8 z"
   id="path19" />
</g><g
   id="g3025"
   transform="matrix(-0.81310076,0.58212297,-0.58212297,-0.81310076,319.42393,26.53232)"><g
     id="g21">
	<path
   style="fill-opacity:0.99610003;fill-rule:evenodd"
   inkscape:connector-curvature="0"
   id="path23"
   d="M 147.7,151.35 C 146.666,152.583 145.166,153.217 143.2,153.25 C 140.8,153.25 138.516,152.817 136.35,151.95 C 133.55,150.85 132.067,150.283 131.9,150.25 L 139.85,151.4 C 142.717,151.367 144.567,150.7 145.4,149.4 C 146.633,147.533 147.883,146.317 149.15,145.75 C 149.35,148.183 148.867,150.05 147.7,151.35 z M 108.95,113.9 L 109.35,114.1 C 109.517,114.8 109.867,115.233 110.4,115.4 C 110.933,115.567 112.067,115.584 113.8,115.45 C 113.6,114.65 113.183,113.666 112.55,112.5 C 112.15,113.033 111.484,113.417 110.55,113.65 C 109.95,113.817 109.417,113.9 108.95,113.9 z M 111.1,110.55 C 111.1,110.183 110.95,109.9 110.65,109.7 C 110.35,109.433 109.967,109.3 109.5,109.3 C 109.067,109.3 108.7,109.45 108.4,109.75 C 108.1,109.95 107.95,110.233 107.95,110.6 C 107.95,110.933 108.1,111.233 108.4,111.5 C 108.7,111.667 109.067,111.75 109.5,111.75 C 109.967,111.75 110.35,111.65 110.65,111.45 C 110.95,111.183 111.1,110.883 111.1,110.55 z M 105.6,108.85 C 106.433,107.883 107.3,107.4 108.2,107.4 C 110.8,107.367 112.9,108.65 114.5,111.25 C 115.6,113.117 116.15,114.667 116.15,115.9 C 116.15,117.167 115.45,117.8 114.05,117.8 C 112.084,117.834 110.133,117.533 108.2,116.9 C 105.567,116.067 104.25,114.834 104.25,113.2 C 104.25,111.533 104.7,110.083 105.6,108.85 z M 107.45,104.95 C 106.217,104.95 105.5,104.7 105.3,104.2 C 109.533,103.7 113,104.617 115.7,106.95 C 117.233,108.283 119.083,110.45 121.25,113.45 L 121,113.75 C 118.967,111.25 117.317,109.383 116.05,108.15 C 113.917,105.95 111.05,104.883 107.45,104.95 z M 137.5,91.65 C 138.467,92.617 139.767,94.167 141.4,96.3 C 137.7,93.5 133.067,90.417 127.5,87.05 C 132.633,88.583 135.967,90.117 137.5,91.65 z M 107.9,79.6 C 110.334,80.3 111.883,80.9 112.55,81.4 L 112,81.3 C 107.5,79.933 104.417,79.067 102.75,78.7 C 103.717,78.633 105.433,78.933 107.9,79.6 z M 99.9,82.25 C 100.267,83.017 100.533,83.85 100.7,84.75 C 100.533,84.95 100.333,84.967 100.1,84.8 C 98.633,82.433 97.783,81.1 97.55,80.8 C 98.45,80.2 99.233,80.683 99.9,82.25 z M 86,95.8 L 86.5,84.35 H 87.25 C 86.183,88.917 86.8,95.133 89.1,103 C 91,109.4 93.117,114.35 95.45,117.85 C 99.183,123.483 103.3,129.15 107.8,134.85 C 114.8,143.75 119.45,148.183 121.75,148.15 C 122.083,148.15 123.033,148.967 124.6,150.6 C 126.067,152.133 126.033,152.333 124.5,151.2 C 115.5,147.1 107,139.666 99,128.9 C 90.333,117.2 86,106.167 86,95.8 z M 219.25,129.95 C 210.683,127.317 205.6,125.867 204,125.6 L 204.15,125.3 C 204.25,125.167 204.383,125 204.55,124.8 C 206.25,125.1 210.8,126.683 218.2,129.55 C 218.533,129.683 218.883,129.817 219.25,129.95 z M 387.35,307.35 C 388.75,308.017 393.934,310.517 402.901,314.85 C 412.534,319.317 420.717,322.951 427.451,325.75 C 436.918,330.017 446.034,335.333 454.801,341.7 C 462.601,347.3 467.268,351.5 468.801,354.3 C 451.301,344.901 439.635,338.6 433.801,335.401 C 425.267,330.667 409.783,321.316 387.35,307.35 z M 367.1,272.9 C 372.967,275.733 382.5,280.016 395.701,285.75 C 409.034,291.85 422.084,298.5 434.85,305.7 C 446.35,312.233 454.384,319.467 458.951,327.4 C 459.084,327.633 460.951,331.333 464.551,338.5 C 467.051,343.434 469.768,347.884 472.701,351.85 C 463.701,343.617 458.401,338.05 456.801,335.151 C 454.101,330.418 448.518,323.401 440.051,314.1 C 438.718,312.701 424.251,304.467 396.652,289.401 C 367.618,273.534 352.385,265.134 350.952,264.201 C 372.118,281.635 377.235,286.051 366.302,277.451 C 353.602,267.451 345.302,260.718 341.403,257.251 C 335.436,251.918 327.17,244.117 316.602,233.851 C 302.436,220.084 293.085,211.068 288.552,206.801 C 284.452,202.867 276.986,195.451 266.152,184.551 C 256.652,174.951 248.485,167.034 241.652,160.801 C 220.019,141.101 193.302,121.034 161.502,100.601 C 164.402,103.034 167.152,106.118 169.752,109.851 C 172.085,113.051 173.452,115.434 173.852,117.001 C 172.785,116.334 171.369,114.968 169.602,112.901 C 167.402,110.268 165.569,108.134 164.102,106.501 C 158.369,100.234 151.935,95.284 144.802,91.651 C 133.836,86.118 124.002,81.784 115.302,78.651 C 109.135,76.384 105.319,75.268 103.852,75.301 C 101.352,75.335 98.902,76.701 96.502,79.401 C 93.902,82.268 91.502,83.835 89.302,84.101 C 89.836,82.801 91.385,81.134 93.952,79.101 C 94.285,78.868 97.302,76.701 103.002,72.601 C 116.702,77.468 128.802,82.484 139.302,87.651 C 145.069,90.418 151.802,93.968 159.502,98.301 C 165.535,101.434 171.119,103.668 176.252,105.001 C 182.652,106.568 191.219,107.534 201.952,107.901 V 108.851 C 212.418,108.118 222.418,109.934 231.952,114.301 C 233.018,114.768 236.369,116.485 242.002,119.451 C 245.502,121.251 248.302,122.384 250.402,122.851 C 249.702,122.851 247.086,122.334 242.552,121.301 C 243.619,122.235 244.285,123.668 244.552,125.601 C 244.719,126.568 244.769,127.468 244.702,128.301 C 244.702,130.101 244.785,131.168 244.952,131.501 C 245.652,132.768 247.385,133.568 250.152,133.901 C 249.952,134.301 247.969,133.801 244.202,132.401 C 243.668,133.501 242.885,134.351 241.852,134.951 C 241.785,134.984 240.602,134.951 238.302,134.851 C 236.202,134.751 235.152,134.901 235.152,135.301 C 235.152,135.468 235.152,135.601 235.152,135.701 C 227.619,135.734 222.735,134.917 220.502,133.251 L 220.652,133.201 C 222.752,133.634 225.935,133.718 230.202,133.451 L 230.002,133.401 C 230.335,133.434 230.635,133.451 230.902,133.451 C 231.602,133.451 233.419,133.468 236.352,133.501 C 239.119,133.301 240.869,132.634 241.602,131.501 C 237.802,130.134 234.019,128.851 230.252,127.651 C 223.085,125.251 214.685,122.801 205.052,120.301 C 205.019,120.101 204.986,119.951 204.952,119.851 C 204.952,119.618 205.152,119.484 205.552,119.451 C 212.419,119.384 219.702,120.751 227.402,123.551 C 231.602,125.085 236.569,127.251 242.302,130.051 C 242.535,129.051 242.652,128.184 242.652,127.451 C 242.652,124.651 242.002,122.651 240.702,121.451 C 239.502,120.451 237.402,119.751 234.402,119.351 C 224.935,118.884 216.185,117.768 208.152,116.001 L 208.252,115.751 C 208.352,115.618 208.485,115.451 208.652,115.251 C 222.586,116.384 231.519,117.434 235.452,118.401 L 234.202,117.901 C 233.202,117.568 226.168,116.318 213.102,114.151 C 198.535,111.684 186.119,109.151 175.852,106.551 C 210.119,130.718 234.802,149.918 249.902,164.151 C 253.969,167.984 258.752,172.835 264.252,178.701 C 269.219,184.101 273.419,188.334 276.852,191.401 C 280.019,194.268 292.903,207.284 315.502,230.451 C 338.9,253.417 356.1,267.566 367.1,272.9 z M 363.6,292.35 L 352.3,286.901 C 358.234,293.267 363.651,299.701 368.55,306.201 C 374.184,313.834 377.45,318.151 378.35,319.151 C 381.884,323.184 386.367,327.067 391.8,330.8 C 398,335.067 407.033,340.217 418.901,346.25 C 411.701,341.483 405.534,335.85 400.401,329.35 C 396.067,322.884 393.1,318.701 391.501,316.8 C 391.768,316.667 391.935,316.5 392.001,316.3 C 395.268,319.067 401.117,324.684 409.551,333.151 C 418.851,342.484 424.084,347.701 425.251,348.8 C 425.185,348.934 424.784,349.017 424.051,349.05 C 423.318,349.05 422.851,349.234 422.652,349.6 C 411.551,347 401.085,342.35 391.252,335.651 C 379.186,327.451 369.835,317.201 363.202,304.901 C 357.969,295.1 349.035,286.867 336.402,280.201 C 331.868,277.767 326.085,275.184 319.051,272.451 C 311.051,269.385 305.101,267.051 301.201,265.451 C 290.301,261.017 277.751,256.135 263.551,250.801 C 250.218,245.834 241.985,242.768 238.851,241.601 C 225.417,236.402 214.401,231.735 205.801,227.601 C 185.901,217.968 172.418,208.834 165.351,200.202 L 166.101,201.601 C 167.434,204.568 170.101,209.402 174.101,216.101 C 173.601,216.035 172.968,215.568 172.201,214.702 C 170.834,213.235 169.484,211.768 168.151,210.302 C 168.085,212.136 167.518,214.519 166.451,217.452 C 165.951,218.919 165.417,220.185 164.851,221.252 C 164.851,221.952 165.451,223.068 166.651,224.602 C 166.484,224.969 165.734,223.986 164.401,221.653 C 163.835,222.42 162.784,222.969 161.251,223.302 C 159.984,223.502 158.918,223.552 158.051,223.452 C 158.284,222.886 157.768,222.485 156.501,222.252 L 154.501,222.052 L 155.551,225.502 C 154.918,224.235 152.934,223.169 149.601,222.302 C 146.368,221.403 144.701,220.785 144.601,220.452 C 143.834,217.985 143.284,216.068 142.951,214.702 L 138.651,196.002 C 137.284,189.602 135.184,182.302 132.351,174.102 C 128.084,161.569 124.134,153.985 120.501,151.352 L 122.351,151.802 C 130.684,154.602 137.034,164.986 141.401,182.952 C 142.835,188.952 144.101,195.969 145.201,204.002 C 145.734,208.335 146.351,213.485 147.051,219.452 H 152.751 C 151.251,215.386 149.784,210.835 148.351,205.802 C 147.218,201.335 146.534,198.736 146.301,198.002 V 191.102 H 147.051 C 146.884,192.735 147.218,195.619 148.051,199.752 C 148.551,201.919 149.201,204.686 150.001,208.052 C 151.101,213.252 152.584,216.719 154.451,218.452 C 155.784,219.685 157.834,220.285 160.601,220.252 C 161.268,220.252 161.968,219.702 162.701,218.602 C 153.634,202.269 149.534,192.736 150.401,190.002 C 151.835,193.769 153.568,197.952 155.601,202.552 C 158.401,208.886 160.968,214.102 163.301,218.202 C 164.735,217.502 165.735,216.752 166.301,215.952 C 166.701,215.318 166.901,214.552 166.901,213.652 C 166.901,209.851 165.085,205.851 161.451,201.652 C 156.884,196.452 153.884,191.868 152.451,187.902 C 152.951,187.902 153.384,188.369 153.751,189.302 C 154.351,191.102 155.918,193.652 158.451,196.952 C 160.584,199.685 163.034,202.535 165.801,205.502 L 165.151,203.402 C 164.751,202.268 162.835,198.535 159.401,192.202 C 156.034,185.869 154.068,181.969 153.501,180.502 C 153.701,180.502 153.351,179.452 152.451,177.352 C 152.951,177.352 153.284,177.469 153.451,177.702 C 153.551,177.902 154.034,178.935 154.901,180.802 C 156.034,182.969 157.451,185.219 159.151,187.552 C 164.518,194.919 172.034,202.035 181.701,208.903 C 188.468,213.703 202.934,221.119 225.101,231.153 C 236.201,236.153 246.801,240.769 256.901,245.003 C 264.434,248.003 280.534,254.119 305.201,263.353 C 329.066,272.983 348.533,282.65 363.6,292.35 z M 157.55,226.05 L 157.6,226.55 C 157.433,226.45 157.25,226.333 157.05,226.2 C 156.717,225.967 156.584,225.816 156.65,225.75 L 157.55,226.05 z M 274.95,203.05 C 283.15,210.217 296.433,222.234 314.8,239.1 C 322.767,246.367 329.667,252.567 335.5,257.701 C 324.6,248.6 313.15,238.784 301.15,228.251 C 278.883,208.685 265.966,197.384 262.4,194.351 C 231.467,168.051 193.1,139.201 147.3,107.801 C 194,137.833 236.55,169.583 274.95,203.05 z"
   clip-rule="evenodd" />
</g></g>
</svg>