<?xml version="1.0" encoding="UTF-8" standalone="no"?>
<!-- Generator: Adobe Illustrator 12.0.1, SVG Export Plug-In . SVG Version: 6.00 Build 51448)  -->

<svg
   xmlns:dc="http://purl.org/dc/elements/1.1/"
   xmlns:cc="http://creativecommons.org/ns#"
   xmlns:rdf="http://www.w3.org/1999/02/22-rdf-syntax-ns#"
   xmlns:svg="http://www.w3.org/2000/svg"
   xmlns="http://www.w3.org/2000/svg"
   xmlns:sodipodi="http://sodipodi.sourceforge.net/DTD/sodipodi-0.dtd"
   xmlns:inkscape="http://www.inkscape.org/namespaces/inkscape"
   version="1.1"
   id="Layer_1"
   width="562.056"
   height="212.427"
   viewBox="0 0 562.056 212.427"
   overflow="visible"
   enable-background="new 0 0 562.056 212.427"
   xml:space="preserve"
   inkscape:version="0.48.1 r9760"
   sodipodi:docname="fish_top.svg"><metadata
   id="metadata5269"><rdf:RDF><cc:Work
       rdf:about=""><dc:format>image/svg+xml</dc:format><dc:type
         rdf:resource="http://purl.org/dc/dcmitype/StillImage" /></cc:Work></rdf:RDF></metadata><defs
   id="defs5267" /><sodipodi:namedview
   pagecolor="#ffffff"
   bordercolor="#666666"
   borderopacity="1"
   objecttolerance="10"
   gridtolerance="10"
   guidetolerance="10"
   inkscape:pageopacity="0"
   inkscape:pageshadow="2"
   inkscape:window-width="1340"
   inkscape:window-height="756"
   id="namedview5265"
   showgrid="false"
   inkscape:zoom="0.90560366"
   inkscape:cx="281.02802"
   inkscape:cy="106.2135"
   inkscape:window-x="0"
   inkscape:window-y="22"
   inkscape:window-maximized="0"
   inkscape:current-layer="Layer_1" />
<g
   id="g5271"
   transform="matrix(-1,0,0,1,257.62226,-102.69393)"><g
     id="g5147">
	<path
   id="path5149"
   d="M 201.648,3.028 C 188.355,16.833 166.062,24.199 160.281,43.914 C 166.93,32.927 175.949,24.309 186.256,16.977 C 186.939,16.936 187.618,16.898 187.699,17.458 C 192.229,11.566 200.073,8.988 204.534,3.028 C 206.019,3.147 207.253,3.516 208.382,3.99 C 201.835,14.277 188.131,19.621 178.078,28.522 C 176.624,29.809 175.335,32.038 173.749,33.813 C 170.936,36.961 168.822,38.216 167.015,42.471 C 167.015,43.754 167.015,45.036 167.015,46.319 C 160.233,46.207 154.818,44.728 151.141,41.509 C 152.386,31.245 159.333,26.337 166.534,20.344 C 173.377,14.649 180.004,6.767 187.699,4.47 C 188.939,4.1 190.053,2.328 192.509,2.546 C 190.571,6.725 185.438,8.872 181.446,11.685 C 176.024,15.507 170.126,19.979 165.092,24.191 C 159.919,28.52 154.838,34.88 154.509,42.469 C 162.238,22.781 182.827,15.951 196.357,2.064 C 197.938,2.57 200.296,2.296 201.648,3.028 z"
   clip-rule="evenodd"
   inkscape:connector-curvature="0"
   style="fill:#a8c399;fill-rule:evenodd" />
	<path
   id="path5151"
   d="M 219.446,6.876 C 215.902,11.052 208.309,13.325 203.092,16.977 C 194.699,22.852 187.764,29.029 180.965,36.699 C 178.913,39.014 175.293,41.151 175.193,44.876 C 180.436,42.082 182.767,33.878 188.18,32.851 C 195.695,20.805 211.185,16.733 221.37,7.357 C 229.161,8.278 230.645,15.575 224.737,20.344 C 221.274,23.139 214.919,25.628 208.863,29.483 C 198.292,36.214 186.619,46.586 168.939,46.318 C 170.026,35.766 180.709,28.339 188.179,24.192 C 188.24,22.762 189.176,22.021 190.103,21.306 C 197.231,15.81 206.213,12.203 211.268,4.471 C 213.723,5.544 217.191,5.604 219.446,6.876 z M 217.041,16.015 C 206.103,22.531 193.961,27.768 187.218,38.623 C 193.094,35.899 197.251,29.878 203.092,25.635 C 210.284,20.41 219.551,17.899 225.699,11.686 C 225.012,11.571 224.887,10.894 224.256,10.724 C 222.003,12.568 219.598,14.492 217.041,16.015 z"
   clip-rule="evenodd"
   inkscape:connector-curvature="0"
   style="fill:#a8c399;fill-rule:evenodd" />
	<path
   id="path5153"
   d="M 224.256,10.724 C 224.887,10.894 225.012,11.571 225.699,11.686 C 219.551,17.899 210.283,20.41 203.092,25.635 C 197.251,29.878 193.095,35.899 187.218,38.623 C 193.961,27.769 206.103,22.531 217.041,16.015 C 219.598,14.492 222.003,12.568 224.256,10.724 z"
   clip-rule="evenodd"
   inkscape:connector-curvature="0"
   style="fill-rule:evenodd" />
	<path
   id="path5155"
   d="M 136.231,42.952 C 137.219,41.84 140.385,42.619 141.522,42.952 C 143.458,48.545 139.479,56.061 136.231,61.23 C 127.799,74.65 103.541,81.029 88.61,89.61 C 76.748,96.427 78.506,111.822 89.572,118.47 C 101.868,125.859 119.255,130.117 130.458,140.116 C 135.088,144.249 137.872,149.574 141.041,156.47 C 139.92,158.236 139.42,160.621 138.155,162.242 C 127.631,162.256 116.811,159.895 106.889,156.951 C 107.541,158.643 111.267,159.992 114.585,160.799 C 120.157,162.153 127.901,163.223 132.382,163.686 C 138.197,164.286 140.131,162.879 141.521,159.357 C 142.485,161.125 141.564,162.59 141.521,164.648 C 130.577,167.347 116.851,162.658 106.407,159.357 C 104.741,158.938 105.449,156.145 103.521,155.99 C 101.028,156.723 104.832,158.403 103.04,159.838 C 95.084,162.123 84.655,157.127 76.103,155.509 C 76.388,153.461 75.757,152.327 75.622,150.698 C 69.023,144.325 53.409,141.122 44.837,142.521 C 52.23,144.26 65.635,145.187 71.293,148.774 C 72.681,149.654 74.671,151.948 74.179,154.065 C 72.668,154.848 69.759,153.533 69.85,151.179 C 62.247,147.559 54.006,144.575 42.433,144.926 C 27.168,139.827 16.94,129.693 6.838,119.432 C 2.036,110.245 0.715,97.692 5.876,87.685 C 8.271,83.041 17.226,75.455 22.711,71.331 C 27.271,67.903 37.06,61.573 43.876,60.749 C 45.253,60.582 46.931,61.276 48.205,61.23 C 58.88,60.845 67.079,56.555 74.18,51.61 C 75.206,56.799 67.056,59.787 61.193,61.23 C 56.777,62.317 51.605,62.036 45.8,62.192 C 44.158,62.733 45.952,64.056 44.838,64.597 C 30.59,65.26 23.077,72.659 15.978,80.471 C 3.094,87.217 -0.087,110.867 11.168,122.32 C 13.653,124.848 17.762,127.454 21.27,130.016 C 24.81,132.601 28.277,136.04 31.371,137.231 C 36.955,139.379 43.505,140.088 51.093,140.598 C 69.931,141.864 80.839,153.887 96.308,155.029 C 82.834,152.504 74.514,143.314 60.713,140.598 C 50.579,138.604 38.333,139.477 29.447,134.826 C 26.018,133.031 17.588,126.755 12.612,121.839 C 4.192,113.52 2.652,95.473 11.65,85.282 C 19.034,76.919 30.787,67.126 40.992,65.56 C 43.129,65.232 44.587,66.369 46.283,66.522 C 60.888,67.84 73.191,63.576 80.916,54.978 C 75.596,57.324 69.998,63.036 61.675,64.599 C 56.873,65.5 51.454,65.746 45.801,65.08 C 47.746,62.91 51.604,64.01 54.941,63.637 C 62.446,62.798 71.918,59.616 76.105,55.941 C 76.328,53.919 75.862,51.208 77.548,50.649 C 80.229,51.139 76.441,51.617 77.067,53.054 C 83.333,50.501 90.234,48.584 98.232,47.763 C 100.04,47.719 99.349,50.173 100.637,50.649 C 102.207,49.558 99.12,47.464 100.637,46.32 C 103.831,46.039 103.857,49.172 103.042,51.612 C 105.922,52.087 105.476,49.236 105.928,47.283 C 109.284,47.433 110.956,45.898 114.105,45.84 C 112.287,48.511 107.333,48.047 106.409,51.612 C 114.423,46.734 129.688,41.249 140.561,45.359 C 140.977,42.696 137.618,43.809 136.231,42.952 z M 62.636,68.927 C 55.13,70.393 47.204,70.073 40.51,71.813 C 36.999,72.726 33.082,74.668 29.928,76.142 C 26.886,77.564 22.741,79.137 21.27,82.395 C 28.034,79.381 34.292,74.69 41.472,72.775 C 50.438,70.383 59.781,71.26 68.409,68.927 C 80.269,65.719 91.405,59.311 104.004,56.902 C 110.224,55.713 116.514,55.756 123.245,54.978 C 101.075,51.606 82,65.144 62.636,68.927 z M 23.193,123.281 C 31.386,129.026 42.374,131.66 53.978,134.344 C 62.417,136.295 70.467,139.537 77.548,142.521 C 79.699,143.427 82.178,144.692 84.282,144.445 C 75.25,139.407 64.184,135.339 53.016,132.901 C 33.768,128.7 17.41,121.193 8.281,106.445 C 7.715,106.521 6.916,106.362 6.838,106.926 C 11.298,113.37 17.231,118.34 23.193,123.281 z M 92.94,138.192 C 97.131,141.213 102.973,143.65 108.813,145.888 C 116.712,148.915 127.292,151.487 134.307,151.179 C 133.259,149.661 129.991,150.365 127.573,150.217 C 121.841,148.092 115.459,146.618 109.294,144.926 C 83.911,131.347 50.194,126.102 24.636,112.697 C 24.155,112.697 23.674,112.697 23.193,112.697 C 43.208,124.43 69.451,129.935 92.94,138.192 z M 127.573,159.357 C 130.997,159.638 135.761,160.007 137.193,157.914 C 130.939,158.386 121.361,157.899 115.547,156.471 C 106.842,154.333 102.831,147.82 94.382,145.889 C 94.061,145.889 93.74,145.889 93.42,145.889 C 102.055,152.327 114.021,158.242 127.573,159.357 z M 77.066,153.585 C 83.564,156.577 91.746,158.883 100.154,157.433 C 99.621,155.572 101.854,155.722 100.635,154.547 C 94.531,160.624 82.496,152.359 77.066,153.585 z"
   clip-rule="evenodd"
   inkscape:connector-curvature="0"
   style="fill:#e9eef1;fill-rule:evenodd" />
	<path
   id="path5157"
   d="M 207.902,52.572 C 202.034,50.102 195.088,48.711 189.142,46.319 C 189.064,45.76 189.248,45.464 189.623,45.357 C 195.684,44.782 201.312,48.714 207.421,49.686 C 207.41,50.819 208.249,51.103 207.902,52.572 z"
   clip-rule="evenodd"
   inkscape:connector-curvature="0"
   style="fill:#a8c399;fill-rule:evenodd" />
	<path
   id="path5159"
   d="M 243.978,62.192 C 232.433,59.147 221.196,55.793 209.826,52.572 C 209.868,51.889 209.906,51.21 209.345,51.129 C 209.515,50.578 210.192,49.91 210.307,50.648 C 221.229,54.797 236.785,54.314 243.978,62.192 z"
   clip-rule="evenodd"
   inkscape:connector-curvature="0"
   style="fill:#a8c399;fill-rule:evenodd" />
	<path
   id="path5161"
   d="M 162.206,50.648 C 162.687,50.648 163.168,50.648 163.649,50.648 C 165.365,53.346 166.191,60.812 162.687,62.192 C 163.923,58.345 163.888,53.95 162.206,50.648 z"
   clip-rule="evenodd"
   inkscape:connector-curvature="0"
   style="fill-rule:evenodd" />
	<path
   id="path5163"
   d="M 68.889,52.091 C 66.68,55.484 57.775,58.435 52.535,59.306 C 50.189,59.696 46.314,60.535 44.839,58.344 C 50.598,57.462 59.129,50.783 66.485,53.053 C 65.515,51.227 68.671,51.146 68.889,52.091 z"
   clip-rule="evenodd"
   inkscape:connector-curvature="0"
   style="fill:#f48f9b;fill-rule:evenodd" />
	<path
   id="path5165"
   d="M 187.218,53.053 C 191.06,54.245 192.888,63.603 189.142,66.521 C 187.358,65.256 190.065,63.733 190.104,61.711 C 190.175,58.093 186.758,55.766 187.218,53.053 z"
   clip-rule="evenodd"
   inkscape:connector-curvature="0"
   style="fill-rule:evenodd" />
	<path
   id="path5167"
   d="M 123.244,54.977 C 116.513,55.756 110.223,55.712 104.003,56.901 C 91.404,59.311 80.268,65.718 68.408,68.926 C 59.78,71.259 50.437,70.383 41.471,72.774 C 34.291,74.689 28.033,79.38 21.269,82.394 C 22.741,79.135 26.885,77.562 29.927,76.141 C 33.081,74.667 36.998,72.724 40.509,71.812 C 47.204,70.073 55.13,70.393 62.635,68.926 C 82,65.144 101.075,51.606 123.244,54.977 z"
   clip-rule="evenodd"
   inkscape:connector-curvature="0"
   style="fill-rule:evenodd" />
	<path
   id="path5169"
   d="M 245.421,60.269 C 309.014,72.996 362.37,95.961 421.471,113.18 C 418.474,113.924 413.692,112.308 411.369,110.775 C 396.482,108.426 382.403,104.225 369.04,99.231 C 355.547,94.188 342.133,90.134 328.636,85.763 C 301.782,77.065 275.194,67.88 245.902,62.193 C 245.963,61.33 245.313,61.178 245.421,60.269 z"
   clip-rule="evenodd"
   inkscape:connector-curvature="0"
   style="fill:#a8c399;fill-rule:evenodd" />
	<path
   id="path5171"
   d="M 214.155,66.041 C 218.865,68.194 218.526,76.196 215.117,79.509 C 212.692,78.831 215.847,76.315 216.079,75.18 C 217.296,70.508 213.446,68.633 214.155,66.041 z"
   clip-rule="evenodd"
   inkscape:connector-curvature="0"
   style="fill-rule:evenodd" />
	<path
   id="path5173"
   d="M 306.991,80.471 C 306.845,81.593 305.964,82.544 307.471,82.876 C 300.311,82.819 293.867,77.882 286.306,76.623 C 285.609,75.717 285.599,74.123 284.382,73.737 C 282.706,73.879 284.423,75.038 283.42,75.18 C 277.489,73.094 270.023,72.543 266.103,68.446 C 265.968,67.587 266.558,67.459 266.584,67.965 C 280.686,71.501 294.127,75.696 306.991,80.471 z"
   clip-rule="evenodd"
   inkscape:connector-curvature="0"
   style="fill:#a8c399;fill-rule:evenodd" />
	<path
   id="path5175"
   d="M 154.509,68.445 C 161.188,69.307 161.938,80.969 156.914,84.319 C 155.572,82.274 158.71,80.274 158.838,77.104 C 159.017,72.672 156.604,71.315 154.509,68.445 z"
   clip-rule="evenodd"
   inkscape:connector-curvature="0"
   style="fill-rule:evenodd" />
	<path
   id="path5177"
   d="M 231.471,73.737 C 237.69,75.525 234.238,88.159 228.585,86.243 C 231.234,84.197 234.002,82.366 233.395,78.066 C 233.147,76.312 231.374,75.804 231.471,73.737 z"
   clip-rule="evenodd"
   inkscape:connector-curvature="0"
   style="fill-rule:evenodd" />
	<path
   id="path5179"
   d="M 291.117,90.091 C 291.131,89.623 291.706,89.717 292.079,89.61 C 295.529,91.428 294.914,99.129 292.56,101.635 C 291.04,99.545 295.065,92.542 291.117,90.091 z"
   clip-rule="evenodd"
   inkscape:connector-curvature="0"
   style="fill-rule:evenodd" />
	<path
   id="path5181"
   d="M 343.066,114.623 C 344.657,113.167 346.304,111.768 347.395,109.812 C 348.069,107.283 345.489,106.298 346.915,104.521 C 350.815,106.973 348.071,113.482 344.991,114.623 C 353.314,118.039 365.489,117.231 371.928,121.357 C 371.797,122.99 372.3,125.256 371.447,126.167 C 363.448,127.84 352.856,125.604 346.434,125.687 C 345.84,127.677 346.617,129.432 344.992,131.94 C 345.438,133.096 348.489,131.649 347.878,133.864 C 346.371,134.46 343.511,132.373 341.625,134.345 C 338.828,131.776 333.885,131.477 329.6,130.978 C 313.617,129.117 295.988,128.771 280.537,125.687 C 277.126,126.284 278.588,131.754 274.284,131.458 C 273.094,129.671 276.896,129.459 276.689,127.129 C 273.622,126.155 267.803,126.574 264.664,127.129 C 266.559,123.572 275.873,127.436 278.614,124.724 C 278.823,122.529 278.128,119.428 279.095,117.991 C 281.896,118.201 280.08,123.712 280.057,124.244 C 292.393,127.381 314.181,128.4 330.082,130.016 C 335.766,130.593 345.094,135.274 344.513,126.167 C 340.25,123.106 334.082,124.064 328.64,122.8 C 307.585,117.909 285.391,111.637 263.222,107.889 C 262.119,110.955 262.815,115.82 258.893,116.066 C 259.403,113.579 262.401,111.39 260.817,108.371 C 244.064,103.431 221.325,106.697 205.02,104.522 C 189.49,102.451 170.485,108.398 157.4,101.155 C 157.081,98.707 156.417,95.275 157.4,92.978 C 164.678,89.327 169.419,93.914 177.121,94.421 C 195.257,95.616 216.436,93.476 234.362,95.383 C 247.413,96.771 264.988,98.626 277.653,101.636 C 302.168,104.638 321.62,110.435 343.066,114.623 z M 241.573,98.269 C 227.967,97.055 213.768,97.823 198.282,96.826 C 188.723,96.211 178.99,97.672 170.864,96.345 C 167.386,95.777 159.673,91.152 159.32,97.307 C 159.085,101.397 165.559,102.308 168.459,102.599 C 183.149,104.068 193.542,101.656 207.421,102.599 C 209.974,102.772 212.541,103.544 215.117,103.561 C 238.242,103.713 262.692,104.749 283.902,108.852 C 288.291,109.701 292.19,112.022 296.408,113.181 C 301.97,114.709 307.951,115.194 313.724,116.548 C 325.292,119.261 336.979,122.141 349.8,123.763 C 356.279,124.582 364.098,126.08 369.522,123.283 C 362.332,119.57 352.09,118.908 342.585,117.511 C 313.112,110.88 278.787,101.587 241.573,98.269 z"
   clip-rule="evenodd"
   inkscape:connector-curvature="0"
   style="fill-rule:evenodd" />
	<path
   id="path5183"
   d="M 104.484,93.458 C 108.025,95.507 108.591,105.083 104.484,106.927 C 105.95,102.089 105.779,98.504 104.484,93.458 z"
   clip-rule="evenodd"
   inkscape:connector-curvature="0"
   style="fill-rule:evenodd" />
	<path
   id="path5185"
   d="M 342.585,117.509 C 352.09,118.906 362.331,119.569 369.522,123.281 C 364.098,126.079 356.279,124.581 349.8,123.761 C 336.979,122.139 325.292,119.259 313.724,116.546 C 307.951,115.192 301.969,114.707 296.408,113.179 C 292.19,112.02 288.291,109.699 283.902,108.85 C 262.692,104.747 238.242,103.711 215.117,103.559 C 212.541,103.542 209.974,102.77 207.421,102.597 C 193.541,101.654 183.149,104.066 168.459,102.597 C 165.559,102.307 159.085,101.396 159.32,97.305 C 159.674,91.15 167.387,95.775 170.864,96.343 C 178.989,97.67 188.723,96.209 198.282,96.824 C 213.768,97.821 227.967,97.053 241.573,98.267 C 278.787,101.587 313.112,110.88 342.585,117.509 z M 160.763,95.863 C 160.763,96.665 160.763,97.467 160.763,98.268 C 167.873,102.818 184.318,100.074 191.067,101.154 C 186.732,96.711 166.533,103.564 161.725,96.825 C 162.285,95.942 164.864,97.078 164.13,94.901 C 162.37,94.585 162.284,95.942 160.763,95.863 z M 326.711,117.028 C 301.588,111.445 276.631,104.036 249.75,101.635 C 232.698,100.113 212.568,100.789 194.915,99.23 C 195.049,98.133 194.799,97.422 193.953,97.306 C 193.578,97.412 193.394,97.709 193.472,98.268 C 193.152,98.268 192.831,98.268 192.51,98.268 C 194.619,101.741 199.949,100.407 203.573,100.673 C 215.153,101.522 231.351,100.883 245.902,101.635 C 259.839,102.356 270.401,105.526 282.459,107.888 C 309.812,113.247 336.255,121.388 365.193,123.761 C 352.627,119.7 339.401,119.848 326.711,117.028 z"
   clip-rule="evenodd"
   inkscape:connector-curvature="0"
   style="fill:#a8c399;fill-rule:evenodd" />
	<path
   id="path5187"
   d="M 164.129,94.901 C 164.863,97.078 162.284,95.942 161.724,96.825 C 166.532,103.564 186.731,96.711 191.066,101.154 C 184.317,100.074 167.872,102.818 160.762,98.268 C 160.762,97.466 160.762,96.664 160.762,95.863 C 162.284,95.942 162.37,94.585 164.129,94.901 z"
   clip-rule="evenodd"
   inkscape:connector-curvature="0"
   style="fill-rule:evenodd" />
	<path
   id="path5189"
   d="M 122.763,95.382 C 127.635,97.608 127.154,109.057 121.32,109.812 C 123.049,106.912 125.21,104.816 124.687,100.673 C 124.38,98.243 121.974,97.372 122.763,95.382 z"
   clip-rule="evenodd"
   inkscape:connector-curvature="0"
   style="fill-rule:evenodd" />
	<path
   id="path5191"
   d="M 365.193,123.762 C 336.255,121.389 309.811,113.248 282.459,107.889 C 270.401,105.526 259.839,102.356 245.902,101.636 C 231.351,100.884 215.153,101.523 203.573,100.674 C 199.948,100.408 194.618,101.742 192.51,98.269 C 192.831,98.269 193.152,98.269 193.472,98.269 C 193.394,97.709 193.578,97.413 193.953,97.307 C 194.799,97.423 195.05,98.135 194.915,99.231 C 212.569,100.79 232.699,100.113 249.75,101.636 C 276.631,104.037 301.588,111.446 326.711,117.029 C 339.401,119.848 352.627,119.7 365.193,123.762 z"
   clip-rule="evenodd"
   inkscape:connector-curvature="0"
   style="fill-rule:evenodd" />
	<path
   id="path5193"
   d="M 362.307,113.18 C 364.628,109.842 372.184,108.047 366.636,101.636 C 372.903,101.875 369.608,115.016 362.307,113.18 z"
   clip-rule="evenodd"
   inkscape:connector-curvature="0"
   style="fill-rule:evenodd" />
	<path
   id="path5195"
   d="M 94.864,103.56 C 97.778,105.993 96.194,113.837 92.459,114.142 C 94.921,111.069 94.131,106.276 94.864,103.56 z"
   clip-rule="evenodd"
   inkscape:connector-curvature="0"
   style="fill-rule:evenodd" />
	<path
   id="path5197"
   d="M 6.838,106.927 C 6.916,106.363 7.715,106.521 8.281,106.446 C 17.409,121.194 33.767,128.701 53.015,132.902 C 64.183,135.34 75.248,139.408 84.281,144.446 C 82.177,144.693 79.698,143.428 77.547,142.522 C 70.466,139.539 62.416,136.296 53.977,134.345 C 42.373,131.66 31.385,129.027 23.192,123.282 C 17.231,118.34 11.298,113.37 6.838,106.927 z"
   clip-rule="evenodd"
   inkscape:connector-curvature="0"
   style="fill-rule:evenodd" />
	<path
   id="path5199"
   d="M 205.978,106.927 C 212.166,107.101 210.905,119.946 206.459,119.433 C 209.618,115.776 208.725,110.479 205.978,106.927 z"
   clip-rule="evenodd"
   inkscape:connector-curvature="0"
   style="fill-rule:evenodd" />
	<path
   id="path5201"
   d="M 171.345,110.294 C 176.328,113.576 174.596,125.571 167.978,125.687 C 169.77,123.07 173.004,121.721 173.27,117.991 C 173.485,114.948 170.826,113.005 171.345,110.294 z"
   clip-rule="evenodd"
   inkscape:connector-curvature="0"
   style="fill-rule:evenodd" />
	<path
   id="path5203"
   d="M 382.028,112.218 C 382.509,112.218 382.991,112.218 383.471,112.218 C 384.848,114.288 385.658,122.682 382.028,122.8 C 383.587,118.798 383.127,116.514 382.028,112.218 z"
   clip-rule="evenodd"
   inkscape:connector-curvature="0"
   style="fill-rule:evenodd" />
	<path
   id="path5205"
   d="M 405.117,112.218 C 405.894,112.082 405.945,112.672 406.56,112.698 C 407.51,118.464 404.885,123.204 400.307,121.838 C 403.691,119.751 406.324,116.312 405.117,112.218 z"
   clip-rule="evenodd"
   inkscape:connector-curvature="0"
   style="fill-rule:evenodd" />
	<path
   id="path5207"
   d="M 23.193,112.698 C 23.674,112.698 24.155,112.698 24.636,112.698 C 50.194,126.102 83.911,131.347 109.294,144.927 C 115.459,146.619 121.841,148.093 127.573,150.218 C 129.99,150.365 133.259,149.662 134.307,151.18 C 127.292,151.488 116.713,148.916 108.813,145.889 C 102.973,143.651 97.131,141.214 92.94,138.193 C 69.451,129.935 43.208,124.43 23.193,112.698 z"
   clip-rule="evenodd"
   inkscape:connector-curvature="0"
   style="fill-rule:evenodd" />
	<path
   id="path5209"
   d="M 422.433,117.028 C 426.432,119.239 421.946,126.792 418.104,124.243 C 420.27,122.319 423.417,120.752 422.433,117.028 z"
   clip-rule="evenodd"
   inkscape:connector-curvature="0"
   style="fill-rule:evenodd" />
	<path
   id="path5211"
   d="M 247.345,119.433 C 251.36,122.493 250.065,132.149 244.94,132.902 C 245.08,130.506 247.708,130.314 248.307,127.611 C 249,124.481 247.089,121.821 247.345,119.433 z"
   clip-rule="evenodd"
   inkscape:connector-curvature="0"
   style="fill-rule:evenodd" />
	<path
   id="path5213"
   d="M 180.003,120.395 C 184.605,121.638 186.479,129.398 184.332,134.345 C 184.16,128.423 182.741,123.749 180.003,120.395 z"
   clip-rule="evenodd"
   inkscape:connector-curvature="0"
   style="fill-rule:evenodd" />
	<path
   id="path5215"
   d="M 218.484,121.838 C 224.22,123.759 221.789,135.955 216.079,134.345 C 220.909,131.813 221.585,126.703 218.484,121.838 z"
   clip-rule="evenodd"
   inkscape:connector-curvature="0"
   style="fill-rule:evenodd" />
	<path
   id="path5217"
   d="M 147.775,125.687 C 151.659,128.236 150.646,138.355 146.332,139.636 C 148.454,135.561 149.198,131.033 147.775,125.687 z"
   clip-rule="evenodd"
   inkscape:connector-curvature="0"
   style="fill-rule:evenodd" />
	<path
   id="path5219"
   d="M 396.94,127.61 C 397.42,127.61 397.902,127.61 398.382,127.61 C 400.768,131.806 399.646,136.009 396.94,139.154 C 405.255,140.662 418.012,140.359 428.686,139.635 C 430.551,138.133 431.408,135.622 431.091,131.939 C 434.32,132.668 431.253,136.836 432.053,139.635 C 435.636,139.33 439.138,137.342 443.598,138.673 C 439.02,140.988 430.649,139.513 426.762,142.521 C 424.864,143.137 425.598,141.12 424.358,141.078 C 415.865,141.404 404.924,141.362 395.497,140.598 C 392.618,140.365 388.809,140.331 387.32,138.193 C 391.014,137.904 391.315,139.377 394.053,139.155 C 396.01,137.585 397.374,135.421 398.382,132.902 C 398.167,130.872 396.487,130.308 396.94,127.61 z"
   clip-rule="evenodd"
   inkscape:connector-curvature="0"
   style="fill-rule:evenodd" />
	<path
   id="path5221"
   d="M 200.687,129.053 C 203.875,131.069 204.992,140.354 200.687,142.04 C 202.494,137.738 201.878,133.372 200.687,129.053 z"
   clip-rule="evenodd"
   inkscape:connector-curvature="0"
   style="fill-rule:evenodd" />
	<path
   id="path5223"
   d="M 290.155,139.154 C 285.942,146.164 274.339,145.785 263.218,145.888 C 263.348,143.452 264.766,142.306 264.18,139.154 C 270.818,137.55 283.504,137.626 290.155,139.154 z"
   clip-rule="evenodd"
   inkscape:connector-curvature="0"
   style="fill:#a8c399;fill-rule:evenodd" />
	<path
   id="path5225"
   d="M 319.497,141.56 C 319.526,143.353 319.012,144.602 318.535,145.889 C 307.352,144.308 295.022,144.734 286.307,144.927 C 288.085,142.535 291.466,141.747 292.56,138.674 C 300.745,140.408 313.027,139.592 319.497,141.56 z"
   clip-rule="evenodd"
   inkscape:connector-curvature="0"
   style="fill:#a8c399;fill-rule:evenodd" />
	<path
   id="path5227"
   d="M 156.433,140.598 C 161.394,142.476 160.01,154.969 154.99,155.509 C 157.749,151.621 159.74,145.45 156.433,140.598 z"
   clip-rule="evenodd"
   inkscape:connector-curvature="0"
   style="fill-rule:evenodd" />
	<path
   id="path5229"
   d="M 320.94,141.078 C 329.4,141.918 338.646,141.972 346.915,143.003 C 346.185,147.108 340.718,145.272 336.813,145.407 C 331.512,145.593 325.343,146.274 320.459,145.888 C 320.593,144.26 321.224,143.126 320.94,141.078 z"
   clip-rule="evenodd"
   inkscape:connector-curvature="0"
   style="fill:#a8c399;fill-rule:evenodd" />
	<path
   id="path5231"
   d="M 379.142,143.965 C 368.938,146.198 359.069,145.564 348.358,145.407 C 348.358,144.605 348.358,143.804 348.358,143.003 C 359.982,142.044 367.43,143.676 379.142,143.965 z"
   clip-rule="evenodd"
   inkscape:connector-curvature="0"
   style="fill:#a8c399;fill-rule:evenodd" />
	<path
   id="path5233"
   d="M 93.421,145.889 C 93.741,145.889 94.062,145.889 94.383,145.889 C 102.832,147.82 106.842,154.333 115.548,156.471 C 121.362,157.9 130.939,158.386 137.194,157.914 C 135.762,160.008 130.998,159.639 127.574,159.357 C 114.021,158.242 102.055,152.327 93.421,145.889 z"
   clip-rule="evenodd"
   inkscape:connector-curvature="0"
   style="fill-rule:evenodd" />
	<path
   id="path5235"
   d="M 316.611,146.851 C 316.817,148.179 314.817,147.302 314.687,148.294 C 316.566,150.773 317.993,147.151 319.978,146.851 C 328.69,147.151 337.24,146.364 343.547,146.851 C 343.505,148.092 341.487,147.357 342.104,149.256 C 344.129,150.278 345.946,147.471 347.395,146.37 C 357.208,147.59 368.185,146.064 378.18,145.889 C 377.662,147.455 376.511,148.389 376.256,150.218 C 351.36,150.082 325.251,151.557 297.369,151.661 C 270.621,151.761 247.057,153.172 224.737,155.509 C 225.889,153.421 228.546,152.514 230.509,152.142 C 243.873,149.614 257.644,151.549 270.433,148.775 C 268.948,146.008 263.133,149.369 261.774,148.295 C 265.149,146.145 270.466,146.798 275.243,146.371 C 289.63,145.083 305.238,145.779 316.611,146.851 z"
   clip-rule="evenodd"
   inkscape:connector-curvature="0"
   style="fill:#a8c399;fill-rule:evenodd" />
	<path
   id="path5237"
   d="M 258.889,148.774 C 248.423,149.051 239.773,151.143 229.066,151.179 C 238.663,149.65 248.6,147.096 258.889,148.774 z"
   clip-rule="evenodd"
   inkscape:connector-curvature="0"
   style="fill:#a8c399;fill-rule:evenodd" />
	<path
   id="path5239"
   d="M 226.18,152.142 C 221.652,152.103 218.508,153.449 213.674,153.104 C 216.658,152.181 223.573,150.257 226.18,152.142 z"
   clip-rule="evenodd"
   inkscape:connector-curvature="0"
   style="fill:#a8c399;fill-rule:evenodd" />
	<path
   id="path5241"
   d="M 68.889,153.104 C 66.814,157.048 61.877,154.098 57.826,153.585 C 61.127,153.059 65.877,154.431 68.889,153.104 z"
   clip-rule="evenodd"
   inkscape:connector-curvature="0"
   style="fill:#f48f9b;fill-rule:evenodd" />
	<path
   id="path5243"
   d="M 100.636,154.547 C 101.855,155.722 99.622,155.571 100.155,157.433 C 91.746,158.883 83.564,156.578 77.067,153.585 C 82.496,152.359 94.531,160.624 100.636,154.547 z"
   clip-rule="evenodd"
   inkscape:connector-curvature="0"
   style="fill-rule:evenodd" />
	<path
   id="path5245"
   d="M 228.104,193.99 C 226.366,198.893 221.578,202.642 217.041,202.648 C 209.685,202.658 203.046,193.832 198.763,190.623 C 185.93,183.894 177.753,172.51 167.016,163.686 C 168.618,168.242 173.042,171.563 176.636,175.23 C 183.191,181.918 190.46,186.759 198.282,193.028 C 203.507,197.215 207.299,201.668 214.636,203.61 C 214.228,205.447 211.754,205.217 210.307,206.015 C 192.203,193.494 174.189,180.884 159.801,164.648 C 161.308,169.772 166.108,172.968 169.903,176.673 C 173.571,180.254 177.228,184.364 181.447,187.735 C 189.936,194.519 200.366,199.459 207.903,206.976 C 196.266,211.586 187.451,205.166 179.523,200.722 C 175.698,196.877 169.595,191.091 164.612,186.773 C 162.933,185.319 160.267,184.356 158.84,182.925 C 155.069,179.144 149.12,169.575 152.106,164.647 C 162.998,161.418 174.939,160.296 184.815,164.647 C 186.46,165.372 187.497,167.099 189.144,168.014 C 202.561,175.464 219.805,183.877 228.104,193.99 z M 219.927,198.8 C 220.464,195.537 216.438,196.837 216.079,194.471 C 199.083,187.256 187.482,174.646 174.231,163.687 C 173.91,163.687 173.589,163.687 173.269,163.687 C 186.217,178.354 200.982,189.487 219.927,198.8 z M 188.18,197.838 C 185.202,197.716 183.92,195.119 181.927,193.509 C 172.226,185.672 161.447,177.625 155.471,166.572 C 154.491,166.303 154.528,165.125 153.547,166.091 C 153.172,166.197 152.988,166.494 153.066,167.053 C 160.595,179.406 172.715,187.168 182.408,197.358 C 188.339,199.603 191.638,204.482 198.282,206.016 C 196.533,201.671 190.209,201.901 188.18,197.838 z M 187.699,170.901 C 200.647,177.674 210.557,187.486 223.775,193.99 C 222.462,190.454 218.354,189.098 215.598,187.256 C 206.32,181.052 197.772,174.757 188.661,168.978 C 188.34,168.978 188.02,168.978 187.699,168.978 C 187.699,169.618 187.699,170.26 187.699,170.901 z"
   clip-rule="evenodd"
   inkscape:connector-curvature="0"
   style="fill:#a8c399;fill-rule:evenodd" />
	<path
   id="path5247"
   d="M 173.269,163.687 C 173.589,163.687 173.91,163.687 174.231,163.687 C 187.482,174.646 199.084,187.256 216.079,194.471 C 216.438,196.837 220.464,195.537 219.927,198.8 C 200.982,189.487 186.217,178.354 173.269,163.687 z"
   clip-rule="evenodd"
   inkscape:connector-curvature="0"
   style="fill-rule:evenodd" />
	<path
   id="path5249"
   d="M 198.282,206.016 C 191.638,204.482 188.34,199.603 182.408,197.358 C 172.715,187.169 160.596,179.406 153.066,167.053 C 152.988,166.494 153.172,166.198 153.547,166.091 C 154.528,165.125 154.49,166.304 155.471,166.572 C 161.447,177.625 172.226,185.672 181.927,193.509 C 183.92,195.119 185.202,197.716 188.18,197.838 C 190.209,201.901 196.533,201.671 198.282,206.016 z"
   clip-rule="evenodd"
   inkscape:connector-curvature="0"
   style="fill-rule:evenodd" />
	<path
   id="path5251"
   d="M 187.699,168.978 C 188.02,168.978 188.34,168.978 188.661,168.978 C 197.772,174.757 206.32,181.052 215.598,187.256 C 218.354,189.099 222.461,190.454 223.775,193.99 C 210.558,187.486 200.648,177.675 187.699,170.901 C 187.699,170.26 187.699,169.618 187.699,168.978 z"
   clip-rule="evenodd"
   inkscape:connector-curvature="0"
   style="fill-rule:evenodd" />
	<path
   id="path5253"
   d="M 557.117,181.483 C 556.427,179.405 554.931,182.459 553.269,181.003 C 545.984,176.102 541.344,168.557 534.509,163.205 C 512.167,149.632 485.053,140.829 454.661,135.307 C 463.157,141.089 476.577,140.143 487.85,143.484 C 502.185,147.733 514.719,154.52 526.812,160.8 C 513.624,156.388 499.084,147.027 481.597,143.484 C 471.168,141.372 460.717,141.033 452.736,136.269 C 456.891,142.215 467.12,142.088 474.382,144.927 C 478.592,153.224 488.474,155.848 494.104,162.724 C 509.07,170.847 518.638,184.368 534.509,191.585 C 526.126,193.03 516.041,182.544 508.534,176.674 C 496.863,167.547 487.044,161.165 475.825,153.104 C 470.971,152.187 469.39,147.995 464.762,146.851 C 464.537,145.825 465.45,145.935 466.205,145.889 C 463.341,140.367 455.727,141.171 449.369,142.522 C 437.082,150.391 415.519,148.369 395.977,149.256 C 390.052,149.525 384.099,150.432 378.661,149.256 C 379.148,147.98 380.314,147.382 380.585,145.889 C 407.611,145.948 427.191,145.532 449.851,141.56 C 443.985,139.675 437.922,142.877 431.091,143.484 C 415.57,144.862 398.175,144.915 381.066,144.446 C 383.21,142.408 390.092,143.68 393.091,143.966 C 391.682,140.886 384.799,143.279 381.066,142.523 C 381.212,139.332 380.622,136.876 378.18,136.27 C 376.764,138.189 380.139,139.426 379.623,142.041 C 362.623,141.4 342.363,142.849 325.269,140.599 C 323.381,140.35 320.892,140.226 319.497,138.675 C 318.345,138.484 319.764,140.865 318.054,140.117 C 308.296,139.255 303.607,137.957 293.523,138.193 C 292.352,137.181 293.949,136.054 293.042,135.307 C 291.305,135.172 291.942,137.413 291.118,138.193 C 276.078,135.932 259.262,137.839 250.232,138.193 C 253.241,141.653 259.813,136.295 263.219,139.155 C 262.794,141.936 262.016,144.366 260.814,146.371 C 251.46,147.321 240.49,147.733 230.029,149.257 C 229.678,147.528 229.455,146.106 229.548,144.928 C 238.873,143.35 249.183,142.756 257.928,140.599 C 252.971,139.916 245.071,141.574 240.13,142.523 C 219.062,146.573 195.298,148.983 172.307,149.257 C 188.128,150.904 209.883,149.127 228.104,145.408 C 228.89,146.186 227.675,147.421 228.104,149.257 C 206.12,153.693 189.859,152.375 166.054,152.624 C 178.573,154.291 187.623,154.279 202.611,153.586 C 188.948,160.718 170.408,153.29 154.99,158.877 C 166.144,157.269 173.781,157.422 187.699,158.877 C 197.164,155.355 211.91,154.55 222.813,154.066 C 223.209,155.905 220.494,154.633 220.889,156.471 C 209.535,158.611 197.146,158.043 187.218,159.838 C 180.127,161.12 171.27,158.393 163.167,159.358 C 156.387,160.165 151.935,164.079 144.889,163.687 C 146.879,160.867 152.472,161.649 154.509,158.876 C 151.475,158.096 148.231,161.25 144.889,161.762 C 141.722,144.567 131.382,134.543 116.509,129.053 C 108.646,122.14 93.341,119.93 86.205,112.218 C 81.886,107.55 81.486,98.732 86.686,93.94 C 90.86,90.093 99.136,88.113 105.927,84.8 C 122.532,76.7 139.557,68.409 144.889,49.205 C 145.614,44.154 143.823,43.192 149.218,43.914 C 149.016,44.994 146.666,43.927 146.332,44.876 C 150.497,45.624 149.884,51.697 150.18,54.977 C 153.153,53.014 150.848,47.956 150.18,45.357 C 159.422,48.654 174.654,50.62 185.294,46.319 C 191.581,49.408 202.558,50.47 208.864,54.977 C 206.006,56.016 198.85,53.167 195.396,51.61 C 189.889,51.505 186.174,49.609 181.446,48.724 C 188.215,53.595 199.941,53.207 208.383,57.382 C 207.822,59.547 206.066,60.516 205.016,62.192 C 207.682,63.179 208.686,59.411 210.307,57.863 C 219.681,60.195 228.06,63.52 237.725,65.559 C 230.358,60.419 217.584,60.687 210.307,55.457 C 213.54,54.488 218.36,55.858 221.851,56.9 C 229.59,59.211 237.771,62.367 245.902,63.634 C 245.631,65.828 247.715,65.669 247.345,67.963 C 252.876,68.921 260.945,70.869 268.029,71.811 C 270.2,73.54 268.663,77.289 269.472,79.507 C 271.576,78.046 270.16,75.412 270.434,72.773 C 275.48,74.461 281.604,75.07 285.345,78.064 C 285.845,81.61 283.454,82.266 283.421,85.279 C 286.558,84.889 286.377,81.18 286.788,78.064 C 294.146,80.647 302.11,82.623 308.434,86.241 C 308.561,89.735 306.75,91.291 306.029,93.937 C 308.092,94.267 309.728,90.355 309.396,86.722 C 314.794,88.057 317.995,91.592 323.827,92.494 C 319.935,87.407 309.398,88.965 308.434,80.95 C 317.616,83.954 328.236,85.519 335.852,90.089 C 336.337,92.979 335.146,94.193 334.89,96.342 C 337.932,96.129 337.868,92.07 337.295,89.608 C 358.516,97.361 380.927,104.887 404.637,110.772 C 417.959,114.08 432.448,117.079 444.561,122.317 C 441.151,123.369 438.176,120.561 433.979,120.874 C 434.523,124.338 440.553,122.316 442.156,124.722 C 455.596,126.52 470.291,130.033 482.561,134.343 C 489.607,136.818 497.998,138.727 504.207,141.558 C 515.304,146.618 524.963,155.044 538.359,159.356 C 546.733,165.09 555.199,170.734 558.561,181.482 C 557.762,183.088 556.469,184.201 554.712,184.849 C 544.231,178.817 538.205,168.327 528.257,161.76 C 538.703,166.065 543.71,175.809 552.308,181.963 C 553.769,181.663 556.45,182.58 557.117,181.483 z M 162.687,62.192 C 166.191,60.811 165.365,53.345 163.649,50.648 C 163.168,50.648 162.687,50.648 162.206,50.648 C 163.888,53.95 163.923,58.345 162.687,62.192 z M 190.104,61.711 C 190.065,63.733 187.358,65.256 189.142,66.521 C 192.888,63.603 191.06,54.245 187.218,53.053 C 186.758,55.766 190.175,58.093 190.104,61.711 z M 216.079,75.18 C 215.847,76.315 212.692,78.831 215.117,79.509 C 218.526,76.196 218.865,68.194 214.155,66.041 C 213.446,68.633 217.296,70.508 216.079,75.18 z M 158.838,77.104 C 158.711,80.274 155.572,82.274 156.914,84.319 C 161.938,80.969 161.188,69.307 154.509,68.445 C 156.604,71.315 159.017,72.672 158.838,77.104 z M 233.396,78.066 C 234.003,82.366 231.235,84.197 228.586,86.243 C 234.239,88.159 237.691,75.525 231.472,73.737 C 231.374,75.804 233.147,76.312 233.396,78.066 z M 292.56,101.635 C 294.914,99.129 295.529,91.428 292.079,89.61 C 291.706,89.717 291.131,89.623 291.117,90.091 C 295.065,92.542 291.04,99.545 292.56,101.635 z M 277.648,101.635 C 264.983,98.625 247.408,96.77 234.357,95.382 C 216.432,93.475 195.253,95.615 177.116,94.42 C 169.414,93.913 164.673,89.326 157.395,92.977 C 156.412,95.274 157.076,98.706 157.395,101.154 C 170.48,108.397 189.485,102.45 205.015,104.521 C 221.32,106.696 244.059,103.43 260.812,108.37 C 262.396,111.39 259.398,113.578 258.888,116.065 C 262.81,115.819 262.115,110.955 263.217,107.888 C 285.386,111.636 307.58,117.909 328.635,122.799 C 334.077,124.064 340.245,123.106 344.508,126.166 C 345.089,135.272 335.761,130.592 330.077,130.015 C 314.176,128.399 292.389,127.379 280.052,124.243 C 280.075,123.711 281.891,118.2 279.09,117.99 C 278.123,119.428 278.818,122.528 278.609,124.723 C 275.868,127.435 266.554,123.572 264.659,127.128 C 267.799,126.573 273.617,126.154 276.684,127.128 C 276.891,129.458 273.088,129.67 274.279,131.457 C 278.583,131.753 277.121,126.282 280.532,125.686 C 295.983,128.77 313.612,129.116 329.595,130.977 C 333.88,131.476 338.824,131.775 341.62,134.344 C 343.506,132.371 346.366,134.458 347.873,133.863 C 348.484,131.648 345.434,133.095 344.987,131.939 C 346.612,129.431 345.836,127.676 346.429,125.686 C 352.851,125.603 363.443,127.839 371.442,126.166 C 372.296,125.256 371.793,122.989 371.923,121.356 C 365.485,117.23 353.31,118.038 344.986,114.622 C 348.066,113.481 350.81,106.973 346.91,104.52 C 345.484,106.297 348.064,107.282 347.39,109.811 C 346.299,111.766 344.652,113.165 343.061,114.622 C 321.62,110.435 302.168,104.638 277.648,101.635 z M 104.484,106.927 C 108.591,105.083 108.025,95.508 104.484,93.458 C 105.779,98.504 105.95,102.089 104.484,106.927 z M 124.687,100.673 C 125.21,104.816 123.049,106.912 121.32,109.812 C 127.154,109.057 127.635,97.608 122.763,95.382 C 121.974,97.372 124.38,98.243 124.687,100.673 z M 366.636,101.635 C 372.184,108.047 364.628,109.842 362.307,113.179 C 369.608,115.016 372.903,101.875 366.636,101.635 z M 92.458,114.142 C 96.193,113.837 97.777,105.993 94.863,103.56 C 94.131,106.276 94.921,111.069 92.458,114.142 z M 206.458,119.433 C 210.904,119.946 212.165,107.101 205.977,106.927 C 208.725,110.479 209.618,115.776 206.458,119.433 z M 173.269,117.99 C 173.004,121.72 169.77,123.069 167.977,125.686 C 174.596,125.571 176.328,113.576 171.344,110.293 C 170.826,113.005 173.485,114.948 173.269,117.99 z M 382.028,122.8 C 385.658,122.682 384.848,114.288 383.471,112.218 C 382.991,112.218 382.509,112.218 382.028,112.218 C 383.127,116.514 383.587,118.798 382.028,122.8 z M 400.307,121.838 C 404.885,123.204 407.51,118.464 406.56,112.698 C 405.945,112.672 405.894,112.082 405.117,112.218 C 406.324,116.312 403.691,119.751 400.307,121.838 z M 418.104,124.243 C 421.946,126.792 426.432,119.239 422.433,117.028 C 423.417,120.752 420.27,122.319 418.104,124.243 z M 248.307,127.61 C 247.708,130.313 245.08,130.505 244.94,132.901 C 250.065,132.148 251.359,122.492 247.345,119.432 C 247.089,121.821 249,124.481 248.307,127.61 z M 184.332,134.345 C 186.479,129.398 184.604,121.638 180.003,120.395 C 182.741,123.749 184.16,128.423 184.332,134.345 z M 216.079,134.345 C 221.788,135.955 224.22,123.759 218.484,121.838 C 221.585,126.703 220.909,131.813 216.079,134.345 z M 146.332,139.636 C 150.646,138.355 151.659,128.236 147.775,125.687 C 149.198,131.033 148.454,135.561 146.332,139.636 z M 398.382,132.901 C 397.374,135.42 396.01,137.584 394.053,139.154 C 391.315,139.376 391.014,137.903 387.32,138.192 C 388.808,140.331 392.618,140.364 395.497,140.597 C 404.925,141.362 415.865,141.404 424.358,141.077 C 425.598,141.119 424.864,143.137 426.762,142.52 C 430.649,139.512 439.02,140.988 443.598,138.672 C 439.138,137.341 435.636,139.329 432.053,139.634 C 431.253,136.835 434.32,132.667 431.091,131.938 C 431.407,135.622 430.551,138.132 428.686,139.634 C 418.012,140.358 405.255,140.66 396.94,139.153 C 399.646,136.008 400.768,131.805 398.382,127.609 C 397.902,127.609 397.42,127.609 396.94,127.609 C 396.487,130.308 398.167,130.872 398.382,132.901 z M 200.687,142.04 C 204.992,140.353 203.875,131.068 200.687,129.053 C 201.878,133.372 202.494,137.738 200.687,142.04 z M 154.99,155.509 C 160.01,154.969 161.394,142.476 156.433,140.598 C 159.74,145.45 157.749,151.621 154.99,155.509 z"
   clip-rule="evenodd"
   inkscape:connector-curvature="0"
   style="fill:#a8c399;fill-rule:evenodd" />
	<path
   id="path5255"
   d="M 247.826,66.521 C 248.627,65.565 247.783,65.909 247.826,64.597 C 252.76,64.514 259.642,66.54 265.142,67.483 C 262.841,69.056 267.881,70.433 265.142,70.85 C 260.193,68.585 252.961,68.602 247.826,66.521 z"
   clip-rule="evenodd"
   inkscape:connector-curvature="0"
   style="fill:#a8c399;fill-rule:evenodd" />
	<path
   id="path5257"
   d="M 456.104,143.483 C 466.122,146.934 472.042,154.483 481.598,158.394 C 486.712,163.703 494.689,166.147 499.395,171.863 C 500.754,171.466 500.641,172.541 501.8,172.344 C 504.938,176.525 510.217,179.342 514.787,182.926 C 518.157,185.568 521.942,188.177 523.927,191.103 C 515.821,186.71 509.739,179.648 502.281,174.268 C 492.098,166.921 480.831,161.086 471.015,153.103 C 466.517,153.112 465.949,149.19 461.875,148.774 C 460.777,146.187 456.811,146.464 456.104,143.483 z"
   clip-rule="evenodd"
   inkscape:connector-curvature="0"
   style="fill:#a8c399;fill-rule:evenodd" />
	<path
   id="path5259"
   d="M 524.889,191.585 C 528.164,192.174 535.808,195.49 539.8,191.585 C 539.316,189.711 538.145,191.511 536.433,191.104 C 514.575,178.009 497.157,160.474 476.307,146.371 C 480.252,145.157 484.159,148.134 487.851,148.775 C 487.895,150.087 487.05,149.744 487.851,150.699 C 496.82,157.66 506.252,166.18 515.269,173.307 C 516.812,174.527 519.769,174.812 520.079,177.636 C 524.009,178.837 526.488,181.489 529.219,183.889 C 533.072,183.733 536.089,188.972 538.839,186.775 C 536.91,184.856 534.165,183.753 531.143,182.927 C 530.01,181.174 528.158,180.141 525.852,179.56 C 525.155,177.692 523.166,177.115 521.523,176.193 C 512.302,166.654 500.07,160.127 491.219,150.218 C 495.64,151.73 499.867,153.435 504.206,155.029 C 504.609,155.587 504.841,156.318 504.686,157.433 C 515.114,165.766 525.012,174.627 537.395,181.003 C 535.432,176.232 530.344,174.585 525.851,172.345 C 520.499,166.953 513.082,163.627 508.535,157.433 C 521.027,163.059 532.289,169.915 540.763,179.56 C 539.986,184.112 542.298,186.441 541.725,189.662 C 540.303,197.646 530.037,195.804 524.889,191.585 z"
   clip-rule="evenodd"
   inkscape:connector-curvature="0"
   style="fill:#a8c399;fill-rule:evenodd" />
	<path
   id="path5261"
   d="M 44.357,146.851 C 52.483,145.644 60.228,148.92 66.003,151.662 C 63.399,154.329 56.401,150.454 52.054,150.219 C 50.779,148.448 48.771,147.408 46.282,146.852 C 46.486,149.535 49.396,149.51 51.093,150.7 C 48.903,151.273 45.712,148.711 44.357,146.851 z"
   clip-rule="evenodd"
   inkscape:connector-curvature="0"
   style="fill:#f48f9b;fill-rule:evenodd" />
	<path
   id="path5263"
   d="M 194.915,42.952 C 223.372,53.361 255.285,58.326 285.345,66.521 C 294.502,69.018 303.473,72.559 312.282,75.179 C 321.317,77.867 329.763,81.629 338.737,82.875 C 340.993,85.696 344.992,85.672 348.358,86.723 C 357.855,89.689 369.15,93.202 378.18,97.305 C 396.468,102.423 415.48,108.5 432.534,114.14 C 438.543,116.127 444.888,117.563 450.332,119.912 C 454.186,121.575 457.489,124.833 461.394,126.165 C 474.722,130.711 489.038,132.052 501.799,137.709 C 505.717,139.446 509.615,141.562 513.344,143.481 C 517.057,145.393 520.294,148.275 523.926,150.215 C 525.072,150.827 527.047,150.561 528.255,151.177 C 535.364,154.806 543.684,160.577 551.344,164.646 C 554.87,169.778 558.815,174.491 561.926,180.038 C 562.48,184.12 561.171,186.339 559.521,188.216 C 553.899,188.867 550.435,187.361 547.015,185.811 C 546.413,190.785 544.586,197.069 540.281,199.76 C 537.039,200.009 532.649,200.976 529.218,199.76 C 516.454,195.239 504.677,183.345 493.623,174.747 C 478.754,163.183 464.41,155.615 450.812,146.368 C 441.712,151.065 424.114,151.41 410.407,153.101 C 398.909,152.038 381.045,153.218 366.154,154.063 C 326.296,156.326 286,153.612 245.42,157.43 C 228.771,158.997 211.873,161.892 194.432,163.684 C 206.599,173.081 223.028,178.271 231.47,190.139 C 230.573,195.166 231.038,201.019 228.103,203.608 C 227.123,204.472 225.19,203.993 222.812,205.05 C 220.102,206.256 220.03,208.717 215.597,207.937 C 211.875,212.311 194.829,213.6 188.179,211.304 C 174.307,206.513 163.573,189.914 153.546,181.481 C 152.814,176.12 148.531,174.31 148.255,168.494 C 135.421,171.144 118.306,168.128 105.926,163.684 C 102.948,166.385 95.131,163.414 91.495,163.684 C 88.831,163.88 88.313,163.68 84.761,162.721 C 83.001,162.246 81.096,162.21 79.469,161.759 C 76.425,160.916 73.469,158.733 70.811,158.392 C 68.562,158.105 65.913,159.008 63.596,158.873 C 57.355,158.51 50.138,156.228 44.836,153.101 C 42.922,151.972 41.577,149.834 39.545,148.772 C 37.093,147.491 34.215,147.438 31.849,146.368 C 20.869,141.399 11.972,133.101 5.874,123.279 C -0.999,112.208 -2.498,94.703 4.912,83.836 C 8.5,78.574 15.101,73.233 20.785,68.925 C 26.714,64.431 33.953,61.365 41.469,59.304 C 46.602,51.544 58.96,50.873 71.773,49.684 C 81.969,48.738 90.625,43.878 100.153,44.393 C 102.302,44.509 104.125,45.421 105.925,45.355 C 111.528,45.15 118.167,42.114 124.203,41.026 C 132.824,39.472 140.372,40.058 148.254,41.988 C 149.152,30.391 156.679,24.99 164.608,18.419 C 169.334,14.502 173.448,10.173 179.038,6.394 C 184.268,2.857 186.006,0.745 192.987,0.141 C 204.558,-0.859 221.157,3.584 230.987,9.281 C 236.867,21.018 222.26,27.631 215.113,31.888 C 207.461,36.449 200.61,40.201 194.915,42.952 z M 196.357,2.066 C 182.827,15.953 162.238,22.783 154.509,42.471 C 154.837,34.882 159.918,28.521 165.092,24.193 C 170.126,19.981 176.024,15.509 181.446,11.687 C 185.438,8.874 190.571,6.727 192.509,2.548 C 190.052,2.33 188.939,4.102 187.699,4.472 C 180.004,6.768 173.378,14.651 166.534,20.346 C 159.333,26.339 152.386,31.247 151.141,41.511 C 154.817,44.73 160.232,46.209 167.015,46.321 C 167.015,45.038 167.015,43.756 167.015,42.473 C 168.823,38.218 170.936,36.963 173.749,33.815 C 175.335,32.04 176.624,29.811 178.078,28.524 C 188.131,19.624 201.834,14.279 208.382,3.992 C 207.253,3.518 206.019,3.149 204.534,3.03 C 200.072,8.99 192.229,11.569 187.699,17.46 C 187.618,16.9 186.939,16.938 186.256,16.979 C 175.95,24.311 166.931,32.929 160.281,43.916 C 166.062,24.201 188.354,16.835 201.648,3.03 C 200.296,2.296 197.938,2.57 196.357,2.066 z M 211.269,4.471 C 206.214,12.203 197.232,15.811 190.104,21.306 C 189.177,22.021 188.241,22.762 188.18,24.192 C 180.709,28.34 170.027,35.767 168.94,46.318 C 186.62,46.585 198.293,36.214 208.864,29.483 C 214.919,25.628 221.275,23.139 224.738,20.344 C 230.646,15.574 229.162,8.278 221.371,7.357 C 211.186,16.733 195.696,20.804 188.181,32.851 C 182.768,33.878 180.436,42.082 175.194,44.876 C 175.294,41.15 178.914,39.014 180.966,36.699 C 187.765,29.03 194.7,22.853 203.093,16.977 C 208.31,13.325 215.903,11.052 219.447,6.876 C 217.191,5.604 213.723,5.544 211.269,4.471 z M 140.56,45.357 C 129.687,41.248 114.422,46.732 106.408,51.61 C 107.332,48.044 112.286,48.509 114.104,45.838 C 110.956,45.896 109.284,47.431 105.927,47.281 C 105.475,49.234 105.921,52.085 103.041,51.61 C 103.856,49.171 103.83,46.037 100.636,46.318 C 99.119,47.462 102.206,49.556 100.636,50.647 C 99.348,50.171 100.039,47.717 98.231,47.761 C 90.234,48.582 83.332,50.499 77.066,53.052 C 76.44,51.614 80.228,51.136 77.547,50.647 C 75.86,51.206 76.327,53.916 76.104,55.939 C 71.916,59.614 62.445,62.795 54.94,63.635 C 51.604,64.009 47.746,62.908 45.8,65.078 C 51.452,65.744 56.872,65.498 61.674,64.597 C 69.997,63.034 75.595,57.322 80.915,54.976 C 73.19,63.575 60.887,67.838 46.282,66.52 C 44.586,66.367 43.128,65.23 40.991,65.558 C 30.786,67.124 19.033,76.916 11.649,85.28 C 2.651,95.47 4.191,113.517 12.611,121.837 C 17.587,126.753 26.017,133.029 29.446,134.824 C 38.332,139.475 50.578,138.602 60.712,140.596 C 74.512,143.312 82.833,152.501 96.307,155.027 C 80.838,153.885 69.931,141.862 51.092,140.596 C 43.505,140.086 36.954,139.377 31.37,137.229 C 28.276,136.039 24.808,132.599 21.269,130.014 C 17.761,127.452 13.652,124.846 11.167,122.318 C -0.088,110.865 3.093,87.215 15.977,80.469 C 23.076,72.657 30.589,65.259 44.838,64.596 C 45.952,64.055 44.158,62.732 45.8,62.191 C 51.604,62.035 56.777,62.316 61.193,61.229 C 67.057,59.786 75.207,56.798 74.18,51.609 C 67.079,56.554 58.881,60.844 48.205,61.229 C 46.931,61.275 45.253,60.582 43.876,60.748 C 37.06,61.572 27.271,67.902 22.711,71.33 C 17.226,75.456 8.271,83.042 5.876,87.686 C 0.715,97.693 2.036,110.246 6.838,119.433 C 16.94,129.694 27.169,139.829 42.433,144.927 C 54.007,144.576 62.247,147.56 69.85,151.18 C 69.759,153.534 72.668,154.849 74.179,154.066 C 74.671,151.949 72.681,149.655 71.293,148.775 C 65.636,145.188 52.231,144.261 44.837,142.522 C 53.408,141.123 69.023,144.326 75.622,150.699 C 75.757,152.328 76.388,153.462 76.103,155.51 C 84.655,157.128 95.084,162.124 103.04,159.839 C 104.832,158.404 101.028,156.725 103.521,155.991 C 105.45,156.146 104.741,158.939 106.407,159.358 C 116.85,162.659 130.576,167.348 141.521,164.649 C 141.564,162.591 142.485,161.126 141.521,159.358 C 140.131,162.88 138.197,164.287 132.382,163.687 C 127.901,163.224 120.156,162.155 114.585,160.8 C 111.267,159.993 107.541,158.645 106.889,156.952 C 116.81,159.896 127.631,162.257 138.155,162.243 C 139.421,160.622 139.921,158.236 141.041,156.471 C 137.872,149.575 135.089,144.249 130.458,140.117 C 119.255,130.119 101.868,125.86 89.572,118.471 C 78.506,111.823 76.748,96.428 88.61,89.611 C 103.541,81.03 127.799,74.652 136.231,61.231 C 139.479,56.062 143.458,48.546 141.522,42.953 C 140.385,42.62 137.219,41.841 136.231,42.953 C 137.618,43.809 140.977,42.696 140.56,45.357 z M 552.307,181.965 C 543.709,175.811 538.703,166.067 528.256,161.762 C 538.204,168.328 544.23,178.819 554.711,184.851 C 556.468,184.203 557.761,183.09 558.56,181.484 C 555.198,170.736 546.732,165.092 538.358,159.358 C 524.962,155.046 515.302,146.62 504.206,141.56 C 497.997,138.729 489.606,136.82 482.56,134.345 C 470.289,130.034 455.595,126.522 442.155,124.724 C 440.552,122.319 434.522,124.34 433.978,120.876 C 438.175,120.564 441.15,123.371 444.56,122.319 C 432.447,117.081 417.958,114.082 404.636,110.774 C 380.926,104.889 358.515,97.363 337.294,89.61 C 337.866,92.071 337.931,96.131 334.889,96.344 C 335.145,94.195 336.336,92.981 335.851,90.091 C 328.235,85.521 317.615,83.956 308.433,80.952 C 309.397,88.967 319.934,87.409 323.826,92.496 C 317.994,91.594 314.794,88.059 309.395,86.724 C 309.727,90.357 308.091,94.269 306.028,93.939 C 306.75,91.293 308.56,89.736 308.433,86.243 C 302.11,82.625 294.146,80.648 286.787,78.066 C 286.376,81.182 286.558,84.891 283.42,85.281 C 283.453,82.268 285.843,81.612 285.344,78.066 C 281.603,75.072 275.479,74.463 270.433,72.775 C 270.159,75.414 271.574,78.048 269.471,79.509 C 268.662,77.29 270.2,73.541 268.028,71.813 C 260.944,70.871 252.875,68.923 247.344,67.965 C 247.715,65.671 245.631,65.83 245.901,63.636 C 237.771,62.369 229.589,59.213 221.85,56.902 C 218.359,55.86 213.539,54.49 210.306,55.459 C 217.583,60.688 230.357,60.421 237.724,65.561 C 228.059,63.521 219.68,60.196 210.306,57.865 C 208.685,59.413 207.681,63.181 205.015,62.194 C 206.065,60.518 207.822,59.549 208.382,57.384 C 199.94,53.209 188.214,53.596 181.445,48.726 C 186.173,49.611 189.887,51.507 195.395,51.612 C 198.85,53.169 206.005,56.017 208.863,54.979 C 202.557,50.472 191.58,49.41 185.293,46.321 C 174.653,50.622 159.421,48.656 150.179,45.359 C 150.847,47.958 153.152,53.016 150.179,54.979 C 149.883,51.699 150.495,45.626 146.331,44.878 C 146.665,43.929 149.015,44.996 149.217,43.916 C 143.822,43.194 145.613,44.156 144.888,49.207 C 139.557,68.409 122.532,76.7 105.927,84.8 C 99.136,88.112 90.86,90.093 86.686,93.94 C 81.486,98.732 81.886,107.55 86.205,112.218 C 93.341,119.93 108.646,122.14 116.509,129.053 C 131.382,134.543 141.721,144.567 144.889,161.762 C 148.231,161.25 151.475,158.096 154.509,158.876 C 152.471,161.648 146.879,160.866 144.889,163.687 C 151.935,164.079 156.387,160.165 163.167,159.358 C 171.27,158.393 180.126,161.121 187.218,159.838 C 197.146,158.043 209.534,158.61 220.889,156.471 C 220.493,154.633 223.208,155.905 222.813,154.066 C 211.911,154.549 197.165,155.354 187.699,158.877 C 173.781,157.422 166.144,157.269 154.99,158.877 C 170.407,153.29 188.948,160.718 202.611,153.586 C 187.623,154.279 178.573,154.291 166.054,152.624 C 189.86,152.375 206.12,153.692 228.104,149.257 C 227.675,147.421 228.89,146.187 228.104,145.408 C 209.882,149.127 188.127,150.904 172.307,149.257 C 195.298,148.983 219.062,146.572 240.13,142.523 C 245.07,141.574 252.971,139.917 257.928,140.599 C 249.183,142.756 238.873,143.35 229.548,144.928 C 229.455,146.106 229.678,147.528 230.029,149.257 C 240.49,147.734 251.46,147.321 260.814,146.371 C 262.016,144.366 262.794,141.936 263.219,139.155 C 259.813,136.295 253.241,141.653 250.232,138.193 C 259.261,137.839 276.078,135.932 291.118,138.193 C 291.942,137.414 291.305,135.172 293.042,135.307 C 293.949,136.054 292.353,137.181 293.523,138.193 C 303.607,137.957 308.296,139.255 318.054,140.117 C 319.764,140.865 318.345,138.483 319.497,138.675 C 320.893,140.226 323.382,140.35 325.269,140.599 C 342.364,142.849 362.623,141.401 379.623,142.041 C 380.139,139.426 376.764,138.188 378.18,136.27 C 380.621,136.875 381.211,139.332 381.066,142.523 C 384.799,143.28 391.682,140.886 393.091,143.966 C 390.092,143.681 383.209,142.408 381.066,144.446 C 398.175,144.915 415.57,144.862 431.091,143.484 C 437.922,142.878 443.985,139.675 449.851,141.56 C 427.192,145.532 407.612,145.948 380.585,145.889 C 380.314,147.382 379.148,147.98 378.661,149.256 C 384.099,150.432 390.053,149.525 395.977,149.256 C 415.519,148.368 437.081,150.391 449.369,142.522 C 455.727,141.171 463.341,140.367 466.205,145.889 C 465.449,145.935 464.537,145.825 464.762,146.851 C 469.391,147.995 470.971,152.187 475.825,153.104 C 487.044,161.166 496.863,167.547 508.534,176.674 C 516.041,182.544 526.126,193.03 534.509,191.585 C 518.638,184.367 509.07,170.847 494.104,162.724 C 488.474,155.848 478.592,153.224 474.382,144.927 C 467.12,142.088 456.892,142.215 452.736,136.269 C 460.717,141.033 471.169,141.372 481.597,143.484 C 499.084,147.027 513.624,156.388 526.812,160.8 C 514.719,154.52 502.185,147.733 487.85,143.484 C 476.577,140.143 463.157,141.089 454.661,135.307 C 485.053,140.829 512.167,149.632 534.509,163.205 C 541.344,168.557 545.984,176.101 553.269,181.003 C 554.931,182.459 556.426,179.405 557.117,181.483 C 556.45,182.58 553.769,181.663 552.307,181.965 z M 207.421,49.686 C 201.312,48.714 195.684,44.782 189.623,45.357 C 189.248,45.463 189.064,45.76 189.142,46.319 C 195.087,48.712 202.034,50.102 207.902,52.572 C 208.249,51.103 207.41,50.819 207.421,49.686 z M 210.307,50.648 C 210.192,49.91 209.515,50.578 209.345,51.129 C 209.906,51.21 209.867,51.89 209.826,52.572 C 221.196,55.793 232.432,59.147 243.978,62.192 C 236.785,54.314 221.229,54.797 210.307,50.648 z M 66.484,53.053 C 59.129,50.783 50.597,57.462 44.838,58.344 C 46.314,60.535 50.188,59.696 52.534,59.306 C 57.775,58.435 66.68,55.484 68.888,52.091 C 68.671,51.146 65.515,51.227 66.484,53.053 z M 245.902,62.192 C 275.194,67.879 301.782,77.064 328.636,85.762 C 342.133,90.134 355.547,94.187 369.04,99.23 C 382.403,104.224 396.482,108.425 411.369,110.774 C 413.691,112.307 418.473,113.923 421.471,113.179 C 362.369,95.96 309.014,72.994 245.421,60.268 C 245.313,61.178 245.963,61.33 245.902,62.192 z M 265.142,70.851 C 267.881,70.434 262.841,69.057 265.142,67.484 C 259.642,66.541 252.76,64.515 247.826,64.598 C 247.783,65.91 248.627,65.566 247.826,66.522 C 252.961,68.602 260.193,68.585 265.142,70.851 z M 266.585,67.964 C 266.559,67.458 265.968,67.586 266.104,68.445 C 270.023,72.543 277.49,73.093 283.421,75.179 C 284.423,75.037 282.707,73.878 284.383,73.736 C 285.6,74.122 285.61,75.716 286.307,76.622 C 293.868,77.881 300.311,82.818 307.472,82.875 C 305.964,82.542 306.845,81.592 306.992,80.47 C 294.127,75.696 280.686,71.501 266.585,67.964 z M 264.18,139.154 C 264.766,142.306 263.348,143.453 263.218,145.888 C 274.338,145.784 285.941,146.163 290.155,139.154 C 283.504,137.626 270.818,137.55 264.18,139.154 z M 292.56,138.674 C 291.465,141.747 288.084,142.535 286.307,144.927 C 295.022,144.734 307.352,144.308 318.535,145.889 C 319.012,144.602 319.526,143.353 319.497,141.56 C 313.027,139.592 300.745,140.408 292.56,138.674 z M 320.458,145.889 C 325.343,146.275 331.512,145.593 336.812,145.408 C 340.716,145.272 346.183,147.109 346.914,143.004 C 338.645,141.973 329.399,141.919 320.939,141.079 C 321.224,143.126 320.593,144.26 320.458,145.889 z M 348.358,143.003 C 348.358,143.805 348.358,144.606 348.358,145.407 C 359.069,145.563 368.938,146.198 379.142,143.965 C 367.43,143.676 359.982,142.044 348.358,143.003 z M 461.876,148.774 C 465.949,149.19 466.518,153.112 471.016,153.103 C 480.831,161.086 492.099,166.921 502.282,174.268 C 509.739,179.648 515.821,186.71 523.928,191.103 C 521.944,188.177 518.158,185.568 514.788,182.926 C 510.218,179.342 504.938,176.525 501.801,172.344 C 500.642,172.54 500.755,171.465 499.396,171.863 C 494.69,166.147 486.713,163.703 481.599,158.394 C 472.042,154.483 466.122,146.934 456.105,143.483 C 456.811,146.464 460.777,146.187 461.876,148.774 z M 275.244,146.37 C 270.468,146.797 265.15,146.143 261.775,148.294 C 263.134,149.368 268.948,146.008 270.434,148.774 C 257.645,151.548 243.874,149.613 230.51,152.141 C 228.547,152.513 225.89,153.42 224.738,155.508 C 247.059,153.171 270.622,151.76 297.37,151.66 C 325.252,151.556 351.36,150.081 376.257,150.217 C 376.512,148.388 377.663,147.454 378.181,145.888 C 368.186,146.064 357.209,147.589 347.396,146.369 C 345.947,147.47 344.13,150.277 342.105,149.255 C 341.489,147.356 343.506,148.091 343.548,146.85 C 337.24,146.363 328.691,147.15 319.979,146.85 C 317.994,147.151 316.567,150.773 314.688,148.293 C 314.818,147.301 316.818,148.178 316.612,146.85 C 305.238,145.779 289.63,145.083 275.244,146.37 z M 541.724,189.661 C 542.297,186.44 539.985,184.111 540.762,179.559 C 532.288,169.914 521.027,163.058 508.534,157.432 C 513.082,163.626 520.499,166.953 525.85,172.344 C 530.343,174.584 535.431,176.231 537.394,181.002 C 525.011,174.626 515.113,165.765 504.685,157.432 C 504.839,156.317 504.608,155.585 504.205,155.028 C 499.866,153.434 495.639,151.729 491.218,150.217 C 500.069,160.125 512.301,166.653 521.522,176.192 C 523.166,177.114 525.154,177.691 525.851,179.559 C 528.157,180.14 530.009,181.173 531.142,182.926 C 534.164,183.751 536.91,184.855 538.838,186.774 C 536.088,188.971 533.07,183.732 529.218,183.888 C 526.488,181.488 524.008,178.836 520.078,177.635 C 519.768,174.811 516.811,174.526 515.268,173.306 C 506.251,166.179 496.819,157.659 487.85,150.698 C 487.049,149.743 487.894,150.087 487.85,148.774 C 484.158,148.132 480.251,145.156 476.306,146.37 C 497.156,160.474 514.574,178.009 536.432,191.103 C 538.144,191.51 539.315,189.71 539.799,191.584 C 535.807,195.489 528.163,192.173 524.888,191.584 C 530.037,195.804 540.303,197.646 541.724,189.661 z M 51.092,150.698 C 49.396,149.509 46.485,149.533 46.281,146.85 C 48.771,147.407 50.779,148.446 52.053,150.217 C 56.4,150.452 63.398,154.327 66.002,151.66 C 60.227,148.919 52.483,145.642 44.356,146.849 C 45.712,148.711 48.903,151.273 51.092,150.698 z M 229.066,151.18 C 239.773,151.144 248.423,149.052 258.889,148.775 C 248.6,147.096 238.663,149.65 229.066,151.18 z M 213.674,153.104 C 218.508,153.449 221.652,152.103 226.18,152.142 C 223.573,150.257 216.658,152.181 213.674,153.104 z M 57.826,153.585 C 61.877,154.098 66.815,157.048 68.889,153.104 C 65.877,154.431 61.127,153.059 57.826,153.585 z M 189.142,168.016 C 187.495,167.101 186.458,165.373 184.813,164.649 C 174.938,160.298 162.996,161.42 152.104,164.649 C 149.118,169.578 155.067,179.146 158.838,182.927 C 160.266,184.358 162.931,185.321 164.61,186.775 C 169.593,191.093 175.696,196.879 179.521,200.724 C 187.449,205.168 196.264,211.588 207.901,206.978 C 200.364,199.46 189.934,194.521 181.445,187.737 C 177.226,184.366 173.57,180.256 169.901,176.675 C 166.106,172.97 161.306,169.774 159.799,164.65 C 174.188,180.886 192.201,193.497 210.305,206.017 C 211.752,205.219 214.226,205.449 214.634,203.612 C 207.297,201.67 203.505,197.216 198.28,193.03 C 190.458,186.761 183.189,181.92 176.634,175.232 C 173.04,171.565 168.615,168.244 167.014,163.688 C 177.751,172.511 185.928,183.896 198.761,190.625 C 203.045,193.834 209.683,202.66 217.039,202.65 C 221.576,202.644 226.364,198.895 228.102,193.992 C 219.805,183.877 202.561,175.464 189.142,168.016 z"
   clip-rule="evenodd"
   inkscape:connector-curvature="0"
   style="fill-rule:evenodd" />
</g></g>
</svg>