<?xml version="1.0" encoding="UTF-8" standalone="no"?>
<!-- Generator: Adobe Illustrator 15.0.0, SVG Export Plug-In . SVG Version: 6.00 Build 0)  -->

<svg
   xmlns:dc="http://purl.org/dc/elements/1.1/"
   xmlns:cc="http://creativecommons.org/ns#"
   xmlns:rdf="http://www.w3.org/1999/02/22-rdf-syntax-ns#"
   xmlns:svg="http://www.w3.org/2000/svg"
   xmlns="http://www.w3.org/2000/svg"
   xmlns:xlink="http://www.w3.org/1999/xlink"
   xmlns:sodipodi="http://sodipodi.sourceforge.net/DTD/sodipodi-0.dtd"
   xmlns:inkscape="http://www.inkscape.org/namespaces/inkscape"
   version="1.1"
   id="Layer_1"
   x="0px"
   y="0px"
   width="550px"
   height="400px"
   viewBox="0 0 550 400"
   enable-background="new 0 0 550 400"
   xml:space="preserve"
   inkscape:version="0.48.1 r9760"
   sodipodi:docname="fish02.svg"><metadata
   id="metadata3050"><rdf:RDF><cc:Work
       rdf:about=""><dc:format>image/svg+xml</dc:format><dc:type
         rdf:resource="http://purl.org/dc/dcmitype/StillImage" /><dc:title></dc:title></cc:Work></rdf:RDF></metadata><defs
   id="defs3048" /><sodipodi:namedview
   pagecolor="#ffffff"
   bordercolor="#666666"
   borderopacity="1"
   objecttolerance="10"
   gridtolerance="10"
   guidetolerance="10"
   inkscape:pageopacity="0"
   inkscape:pageshadow="2"
   inkscape:window-width="1280"
   inkscape:window-height="843"
   id="namedview3046"
   showgrid="false"
   inkscape:zoom="0.655"
   inkscape:cx="275"
   inkscape:cy="200"
   inkscape:window-x="0"
   inkscape:window-y="22"
   inkscape:window-maximized="0"
   inkscape:current-layer="Layer_1" />
<symbol
   id="fin"
   viewBox="-0.011 -2.2 40.411 78.5">
	<g
   id="Layer_1_2_">
		<path
   fill-rule="evenodd"
   clip-rule="evenodd"
   d="M30.45,69.6L21.6,46.2L33.05,66c1.667-2.533,2.833-5.067,3.5-7.6    c0.567-2.1,0.967-5.15,1.2-9.15c0.3-4.767,0.833-9.183,1.6-13.25c0.4-2.067,0.75-3.633,1.05-4.7l-13.35-6.45    c-1.533-1.267-3.216-2.917-5.05-4.95c-3.667-4.1-6.3-8.05-7.9-11.85C4.433,2.217-0.267-0.45,0,0.05L24.4,76.3l2.75-2.8    C28.317,72.2,29.417,70.9,30.45,69.6z"
   id="path3027" />
	</g>
	<g
   id="Layer_2_2_">
		<path
   fill-rule="evenodd"
   clip-rule="evenodd"
   fill="#FFFFFF"
   d="M8.5,1.5L6.05-0.4C4.684-1.433,3.934-2.033,3.8-2.2l11.05,33.4    l-3.55-15l12.75,19.95l-8.1-16.9L8.5,1.5z"
   id="path3030" />
	</g>
</symbol>
<symbol
   id="fish"
   viewBox="-237.25 -115.326 474.55 247.126">
	<g
   id="Layer_1_3_">
		<path
   fill-rule="evenodd"
   clip-rule="evenodd"
   d="M13.2,56.4c8.267,0,22.367-0.467,42.3-1.4s30.617-1.4,32.05-1.4    c3.934,0,9.2,1.45,15.8,4.35c7.633,3.333,15.316,7.917,23.05,13.75c20.333,15.433,35.967,35.466,46.9,60.1    c1.967-5.167,3.9-9.1,5.8-11.8c1.267-1.8,1.9-3.033,1.9-3.7c0-0.1-4.383-6.917-13.15-20.45c-0.167-0.233-4.434-6-12.8-17.3    c5.4,6.167,11.934,14.1,19.6,23.8c5.767,7.3,8.8,10.95,9.1,10.95c1.367,0,3.083-0.417,5.15-1.25c2.434-0.966,4.567-1.583,6.4-1.85    c0.767-0.1,9.767-0.9,27-2.4c-9.3-7.767-16.583-13.583-21.85-17.45c-8.967-6.633-21.55-15.117-37.75-25.45    c17.066,9.133,29.65,16.15,37.75,21.05c9.533,5.767,17.283,11.183,23.25,16.25c-3.534-5.6-5.85-10.317-6.95-14.15    c-0.567-1.933-0.85-4.083-0.85-6.45c0-7.8,1.8-14.15,5.4-19.05c2.667-3.566,8-8.15,16-13.75c-6.433,0.333-14.333,0.317-23.7-0.05    c-8.033-0.333-16.383-0.883-25.05-1.65c-5.133-0.467-12.233-2.1-21.3-4.9c-9-3-14.45-4.784-16.35-5.35    C137.967,32.817,123.833,26,108.5,16.4C94.667,6.967,86.483,1.55,83.95,0.15c-28.2-15.7-47.583-26.333-58.15-31.9    C7.633-41.317-8.167-48.833-21.6-54.3c-6.133-2.467-12.25-4.733-18.35-6.8c-9.1-3-18.183-5.533-27.25-7.6    c-15.633-3.533-33.133-6.05-52.5-7.55l3.35,10.4L-141.05-54l15.3-14.35L-128-76.8l-6.05-0.3l2.25,7.45l-17.65,13.95l13.15-16.1    l-4.1-5.6c-4.733-0.2-10.717-0.35-17.95-0.45c-1.267,0-2.483-0.017-3.65-0.05c-6.733-0.067-12.033-0.133-15.9-0.2    c-4.733-0.066-10.067,0.2-16,0.8c-6.233,0.667-11.184,1-14.85,1c-3.933-0.333-7.117-0.483-9.55-0.45    c-4.567,0.033-7.55,0.95-8.95,2.75c-2.9,3.7-5.35,7.983-7.35,12.85c-1.767,4.267-2.65,7.517-2.65,9.75    c0,0.533,1.35,1.933,4.05,4.2c4.133,3.367,6.417,5.267,6.85,5.7c6.733,6.233,14.6,12.917,23.6,20.05    c1.667,1.333,10.083,7.833,25.25,19.5l6.45-1.65v-20.8l4.8,22l-6.3,4.25l4.8,3.6l5.75-4.1l1.35-0.95L-162-9.65l-1.45-10.75    l1.45,3.1l10.15,21.7l-9.3,6c2.9,2.2,5.717,4.267,8.45,6.2c18.434,13.133,40.417,22.933,65.95,29.4    c2.267,0.567,4.567,1.117,6.9,1.65C-54.017,53.483-23,56.4,13.2,56.4z M67.5,34.2c-8.3-0.9-25.733-4.383-52.3-10.45    C-19,15.983-37.383,11.833-39.95,11.3H-40c-12.933-2.6-30-8-51.2-16.2c-19.4-8-31.167-12.85-35.3-14.55    c24.2,8.567,36.533,12.917,37,13.05C-71.8-0.433-56.067,4.083-42.3,7.15c0.767,0.167,1.55,0.333,2.35,0.5    C-19.55,12.283,16.267,21.133,67.5,34.2z"
   id="path3034" />
		<path
   fill-rule="evenodd"
   clip-rule="evenodd"
   fill="#FFFFFF"
   d="M67.5,34.2C16.267,21.133-19.55,12.283-39.95,7.65    c-0.8-0.167-1.583-0.333-2.35-0.5C-56.067,4.083-71.8-0.433-89.5-6.4c-0.467-0.133-12.8-4.483-37-13.05    c4.133,1.7,15.9,6.55,35.3,14.55C-70,3.3-52.933,8.7-40,11.3h0.05c2.567,0.534,20.95,4.684,55.15,12.45    C41.767,29.817,59.2,33.3,67.5,34.2z"
   id="path3036" />
		
			<use
   xlink:href="#fin"
   width="40.411"
   height="78.5"
   x="-0.011"
   y="-2.2"
   transform="matrix(1 0 0 1 -157.0498 11.25)"
   overflow="visible"
   id="use3038" />
		
			<use
   xlink:href="#fin"
   width="40.411"
   height="78.5"
   x="-0.011"
   y="-2.2"
   transform="matrix(0.7349 0.6782 0.6782 -0.7349 -117.75 -75.8008)"
   overflow="visible"
   id="use3040" />
	</g>
</symbol>
<path
   clip-rule="evenodd"
   d="M 486.65,93.6 C 487.983,93.6 489.667,94.017 491.7,94.85 C 494.066,95.783 496.167,96.383 498,96.65 C 498.733,96.75 507.583,97.55 524.55,99.05 C 515.417,106.683 508.267,112.4 503.1,116.2 C 494.267,122.7 481.867,131.05 465.901,141.25 C 482.701,132.25 495.1,125.333 503.1,120.5 C 512.467,114.833 520.067,109.5 525.901,104.5 C 522.434,110 520.168,114.65 519.1,118.45 C 518.534,120.35 518.25,122.467 518.25,124.8 C 518.25,132.467 520.033,138.7 523.6,143.5 C 526.201,147.033 531.434,151.55 539.3,157.05 C 533,156.717 525.234,156.734 516,157.1 C 508.1,157.433 499.884,157.967 491.35,158.7 C 486.284,159.166 479.3,160.783 470.401,163.55 C 461.567,166.517 456.201,168.267 454.3,168.8 C 441.567,172.767 427.667,179.484 412.6,188.95 C 399,198.25 390.951,203.583 388.451,204.95 C 360.718,220.384 341.651,230.833 331.251,236.3 C 313.385,245.7 297.834,253.1 284.601,258.5 C 278.601,260.9 272.601,263.116 266.601,265.15 C 257.634,268.116 248.701,270.616 239.801,272.65 C 230.701,274.716 220.918,276.433 210.451,277.799 C 213.084,278.499 216.017,278.999 219.251,279.299 C 221.918,279.566 224.234,279.65 226.201,279.549 L 240.201,275.299 C 240.667,276.266 241.417,277.615 242.451,279.349 C 244.618,282.849 247.201,286.416 250.201,290.049 C 252.701,293.082 254.451,295.549 255.451,297.449 C 256.651,299.716 257.501,302.332 258.001,305.299 L 236.501,298.65 L 258.501,309.65 C 258.634,311.283 258.718,312.95 258.751,314.65 L 258.651,318.5 L 190.501,279.85 C 189.701,279.917 188.918,279.984 188.151,280.05 L 191.401,269.8 L 167.151,258.151 L 182.2,272.3 L 179.95,280.6 L 174,280.9 L 176.2,273.549 L 158.85,259.849 L 171.8,275.7 L 167.75,281.2 C 163.117,281.4 157.233,281.55 150.1,281.65 C 148.867,281.65 147.683,281.667 146.55,281.7 C 139.917,281.766 134.683,281.816 130.85,281.849 C 126.217,281.916 120.983,281.666 115.15,281.099 C 109.017,280.466 104.15,280.15 100.55,280.15 C 96.683,280.45 93.55,280.583 91.15,280.549 C 86.683,280.516 83.75,279.615 82.35,277.849 C 79.517,274.183 77.1,269.966 75.1,265.2 C 73.367,261 72.5,257.8 72.5,255.599 C 72.5,255.099 73.833,253.733 76.5,251.499 C 80.567,248.199 82.817,246.332 83.25,245.899 C 89.85,239.732 97.583,233.149 106.45,226.149 C 108.083,224.848 116.367,218.465 131.3,206.999 L 137.65,208.649 V 229.1 L 142.35,207.451 L 136.15,203.251 L 140.85,199.651 L 146.55,203.751 L 147.85,204.651 L 146.55,214.55 L 145.1,225.1 L 146.55,222.1 L 156.55,200.75 L 147.35,194.85 C 149.017,193.55 150.666,192.333 152.3,191.2 L 175.4,118.95 L 178.1,121.7 C 179.233,122.967 180.317,124.233 181.35,125.5 L 172.65,148.55 L 183.9,129.1 C 185.533,131.567 186.683,134.05 187.35,136.55 C 187.916,138.617 188.317,141.617 188.55,145.55 C 188.817,150.25 189.334,154.6 190.1,158.6 C 190.5,160.633 190.85,162.166 191.15,163.2 L 178,169.55 C 176.5,170.783 174.833,172.4 173,174.4 C 171.133,176.533 169.533,178.633 168.2,180.7 C 183.533,171.733 200.983,164.766 220.55,159.8 C 222.783,159.267 225.033,158.717 227.3,158.15 C 252.734,152.45 283.25,149.6 318.85,149.6 C 326.984,149.6 340.85,150.05 360.451,150.95 C 380.084,151.85 390.617,152.3 392.051,152.3 C 395.918,152.3 401.084,150.9 407.551,148.1 C 415.084,144.8 422.635,140.267 430.201,134.5 C 450.201,119.333 465.584,99.633 476.35,75.4 C 478.284,80.5 480.201,84.367 482.1,87 C 483.333,88.767 483.951,90 483.951,90.7 C 483.951,90.766 479.635,97.45 471.001,110.75 C 470.834,111.017 466.651,116.7 458.451,127.8 C 463.718,121.734 470.135,113.917 477.701,104.35 C 483.366,97.183 486.35,93.6 486.65,93.6 z"
   id="path3042"
   inkscape:connector-curvature="0"
   style="fill:#8e8e00;fill-opacity:0.49800002;fill-rule:evenodd" />
<use
   xlink:href="#fish"
   width="474.54999"
   height="247.12601"
   x="-237.25"
   y="-115.326"
   transform="matrix(1,0,0,-1,290.1504,188.8999)"
   overflow="visible"
   id="use3044"
   style="overflow:visible" />
</svg>